<svg xmlns="http://www.w3.org/2000/svg" xmlns:xlink="http://www.w3.org/1999/xlink" width="500" zoomAndPan="magnify" viewBox="0 0 375 374.999991" height="500" preserveAspectRatio="xMidYMid meet" version="1.0"><defs><g/><clipPath id="e11babeffc"><path d="M -60.460938 98.503906 L 332.898438 -23.171875 L 418.445312 253.402344 L 25.085938 375.074219 Z M -60.460938 98.503906 " clip-rule="nonzero"/></clipPath><clipPath id="808a36a01b"><path d="M 181 8 L 361 8 L 361 189 L 181 189 Z M 181 8 " clip-rule="nonzero"/></clipPath><clipPath id="c3f70ea13d"><path d="M -60.460938 98.503906 L 332.898438 -23.171875 L 418.445312 253.402344 L 25.085938 375.074219 Z M -60.460938 98.503906 " clip-rule="nonzero"/></clipPath><clipPath id="38733bf067"><path d="M 332.886719 -23.167969 L -60.472656 98.503906 L 25.074219 375.078125 L 418.4375 253.40625 Z M 332.886719 -23.167969 " clip-rule="nonzero"/></clipPath><clipPath id="5858397d47"><path d="M 180 7 L 363 7 L 363 190 L 180 190 Z M 180 7 " clip-rule="nonzero"/></clipPath><clipPath id="dd4eddc3e1"><path d="M -60.460938 98.503906 L 332.898438 -23.171875 L 418.445312 253.402344 L 25.085938 375.074219 Z M -60.460938 98.503906 " clip-rule="nonzero"/></clipPath><clipPath id="4eb8ee53ec"><path d="M 332.886719 -23.167969 L -60.472656 98.503906 L 25.074219 375.078125 L 418.4375 253.40625 Z M 332.886719 -23.167969 " clip-rule="nonzero"/></clipPath><clipPath id="21f041ec19"><path d="M 295 104 L 318 104 L 318 126 L 295 126 Z M 295 104 " clip-rule="nonzero"/></clipPath><clipPath id="9e500fa310"><path d="M -60.460938 98.503906 L 332.898438 -23.171875 L 418.445312 253.402344 L 25.085938 375.074219 Z M -60.460938 98.503906 " clip-rule="nonzero"/></clipPath><clipPath id="9be2040bf3"><path d="M 332.886719 -23.167969 L -60.472656 98.503906 L 25.074219 375.078125 L 418.4375 253.40625 Z M 332.886719 -23.167969 " clip-rule="nonzero"/></clipPath><clipPath id="c5856db2e3"><path d="M 258 58 L 281 58 L 281 81 L 258 81 Z M 258 58 " clip-rule="nonzero"/></clipPath><clipPath id="622defe48d"><path d="M -60.460938 98.503906 L 332.898438 -23.171875 L 418.445312 253.402344 L 25.085938 375.074219 Z M -60.460938 98.503906 " clip-rule="nonzero"/></clipPath><clipPath id="e3a8bb7703"><path d="M 332.886719 -23.167969 L -60.472656 98.503906 L 25.074219 375.078125 L 418.4375 253.40625 Z M 332.886719 -23.167969 " clip-rule="nonzero"/></clipPath><clipPath id="44d6232fdc"><path d="M 230 112 L 253 112 L 253 135 L 230 135 Z M 230 112 " clip-rule="nonzero"/></clipPath><clipPath id="0bb1eb70d2"><path d="M -60.460938 98.503906 L 332.898438 -23.171875 L 418.445312 253.402344 L 25.085938 375.074219 Z M -60.460938 98.503906 " clip-rule="nonzero"/></clipPath><clipPath id="d1ee303fed"><path d="M 332.886719 -23.167969 L -60.472656 98.503906 L 25.074219 375.078125 L 418.4375 253.40625 Z M 332.886719 -23.167969 " clip-rule="nonzero"/></clipPath><clipPath id="2e440b727f"><path d="M 185 71 L 198 71 L 198 94 L 185 94 Z M 185 71 " clip-rule="nonzero"/></clipPath><clipPath id="9aaa0d8c3a"><path d="M -60.460938 98.503906 L 332.898438 -23.171875 L 418.445312 253.402344 L 25.085938 375.074219 Z M -60.460938 98.503906 " clip-rule="nonzero"/></clipPath><clipPath id="32d294fbeb"><path d="M 332.886719 -23.167969 L -60.472656 98.503906 L 25.074219 375.078125 L 418.4375 253.40625 Z M 332.886719 -23.167969 " clip-rule="nonzero"/></clipPath><clipPath id="23a930fa77"><path d="M 193 126 L 208 126 L 208 148 L 193 148 Z M 193 126 " clip-rule="nonzero"/></clipPath><clipPath id="2a61e7014b"><path d="M -60.460938 98.503906 L 332.898438 -23.171875 L 418.445312 253.402344 L 25.085938 375.074219 Z M -60.460938 98.503906 " clip-rule="nonzero"/></clipPath><clipPath id="37c6f6fda1"><path d="M 332.886719 -23.167969 L -60.472656 98.503906 L 25.074219 375.078125 L 418.4375 253.40625 Z M 332.886719 -23.167969 " clip-rule="nonzero"/></clipPath><clipPath id="149422d80d"><path d="M 241 170 L 264 170 L 264 184 L 241 184 Z M 241 170 " clip-rule="nonzero"/></clipPath><clipPath id="164ea4eb56"><path d="M -60.460938 98.503906 L 332.898438 -23.171875 L 418.445312 253.402344 L 25.085938 375.074219 Z M -60.460938 98.503906 " clip-rule="nonzero"/></clipPath><clipPath id="738f046a28"><path d="M 332.886719 -23.167969 L -60.472656 98.503906 L 25.074219 375.078125 L 418.4375 253.40625 Z M 332.886719 -23.167969 " clip-rule="nonzero"/></clipPath><clipPath id="f3c71cc24c"><path d="M 316 150 L 336 150 L 336 168 L 316 168 Z M 316 150 " clip-rule="nonzero"/></clipPath><clipPath id="80d8a046a1"><path d="M -60.460938 98.503906 L 332.898438 -23.171875 L 418.445312 253.402344 L 25.085938 375.074219 Z M -60.460938 98.503906 " clip-rule="nonzero"/></clipPath><clipPath id="e3500e69b8"><path d="M 332.886719 -23.167969 L -60.472656 98.503906 L 25.074219 375.078125 L 418.4375 253.40625 Z M 332.886719 -23.167969 " clip-rule="nonzero"/></clipPath><clipPath id="bf33dbdbec"><path d="M 347 95 L 359 95 L 359 118 L 347 118 Z M 347 95 " clip-rule="nonzero"/></clipPath><clipPath id="6c26ee3ef8"><path d="M -60.460938 98.503906 L 332.898438 -23.171875 L 418.445312 253.402344 L 25.085938 375.074219 Z M -60.460938 98.503906 " clip-rule="nonzero"/></clipPath><clipPath id="8d823fff9e"><path d="M 332.886719 -23.167969 L -60.472656 98.503906 L 25.074219 375.078125 L 418.4375 253.40625 Z M 332.886719 -23.167969 " clip-rule="nonzero"/></clipPath><clipPath id="3f3b732b97"><path d="M 326 37 L 343 37 L 343 57 L 326 57 Z M 326 37 " clip-rule="nonzero"/></clipPath><clipPath id="b52c64e546"><path d="M -60.460938 98.503906 L 332.898438 -23.171875 L 418.445312 253.402344 L 25.085938 375.074219 Z M -60.460938 98.503906 " clip-rule="nonzero"/></clipPath><clipPath id="f2ccef7da6"><path d="M 332.886719 -23.167969 L -60.472656 98.503906 L 25.074219 375.078125 L 418.4375 253.40625 Z M 332.886719 -23.167969 " clip-rule="nonzero"/></clipPath><clipPath id="338e375cf8"><path d="M 277 11 L 301 11 L 301 24 L 277 24 Z M 277 11 " clip-rule="nonzero"/></clipPath><clipPath id="676ac4b78a"><path d="M -60.460938 98.503906 L 332.898438 -23.171875 L 418.445312 253.402344 L 25.085938 375.074219 Z M -60.460938 98.503906 " clip-rule="nonzero"/></clipPath><clipPath id="a6675e46d5"><path d="M 332.886719 -23.167969 L -60.472656 98.503906 L 25.074219 375.078125 L 418.4375 253.40625 Z M 332.886719 -23.167969 " clip-rule="nonzero"/></clipPath><clipPath id="189b712f68"><path d="M 206 29 L 226 29 L 226 46 L 206 46 Z M 206 29 " clip-rule="nonzero"/></clipPath><clipPath id="1cbce8e3e0"><path d="M -60.460938 98.503906 L 332.898438 -23.171875 L 418.445312 253.402344 L 25.085938 375.074219 Z M -60.460938 98.503906 " clip-rule="nonzero"/></clipPath><clipPath id="4e31ca3acd"><path d="M 332.886719 -23.167969 L -60.472656 98.503906 L 25.074219 375.078125 L 418.4375 253.40625 Z M 332.886719 -23.167969 " clip-rule="nonzero"/></clipPath><clipPath id="b5ea0c9301"><path d="M 24 54 L 183 54 L 183 375 L 24 375 Z M 24 54 " clip-rule="nonzero"/></clipPath><clipPath id="20a4331d79"><path d="M -60.460938 98.503906 L 332.898438 -23.171875 L 418.445312 253.402344 L 25.085938 375.074219 Z M -60.460938 98.503906 " clip-rule="nonzero"/></clipPath><clipPath id="fa2e5ca177"><path d="M 332.886719 -23.167969 L -60.472656 98.503906 L 25.074219 375.078125 L 418.4375 253.40625 Z M 332.886719 -23.167969 " clip-rule="nonzero"/></clipPath><clipPath id="1e54cc2a35"><path d="M 95 189 L 319 189 L 319 292 L 95 292 Z M 95 189 " clip-rule="nonzero"/></clipPath><clipPath id="9ab47bd732"><path d="M -60.460938 98.503906 L 332.898438 -23.171875 L 418.445312 253.402344 L 25.085938 375.074219 Z M -60.460938 98.503906 " clip-rule="nonzero"/></clipPath><clipPath id="6dcc2d5172"><path d="M 332.886719 -23.167969 L -60.472656 98.503906 L 25.074219 375.078125 L 418.4375 253.40625 Z M 332.886719 -23.167969 " clip-rule="nonzero"/></clipPath><clipPath id="3d719c48ab"><path d="M 73 188 L 206 188 L 206 288 L 73 288 Z M 73 188 " clip-rule="nonzero"/></clipPath><clipPath id="33f1d2ffc9"><path d="M -60.460938 98.503906 L 332.898438 -23.171875 L 418.445312 253.402344 L 25.085938 375.074219 Z M -60.460938 98.503906 " clip-rule="nonzero"/></clipPath><clipPath id="1f4e93301f"><path d="M 332.886719 -23.167969 L -60.472656 98.503906 L 25.074219 375.078125 L 418.4375 253.40625 Z M 332.886719 -23.167969 " clip-rule="nonzero"/></clipPath><clipPath id="29eee4a718"><path d="M 57 132 L 157 132 L 157 314 L 57 314 Z M 57 132 " clip-rule="nonzero"/></clipPath><clipPath id="246e19e4f5"><path d="M -60.460938 98.503906 L 332.898438 -23.171875 L 418.445312 253.402344 L 25.085938 375.074219 Z M -60.460938 98.503906 " clip-rule="nonzero"/></clipPath><clipPath id="d89af71068"><path d="M 332.886719 -23.167969 L -60.472656 98.503906 L 25.074219 375.078125 L 418.4375 253.40625 Z M 332.886719 -23.167969 " clip-rule="nonzero"/></clipPath><clipPath id="4df8c1d281"><rect x="0" width="375" y="0" height="375"/></clipPath><clipPath id="058ef04e98"><rect x="0" width="155" y="0" height="78"/></clipPath></defs><g clip-path="url(#e11babeffc)"><g transform="matrix(1, 0, 0, 1, 0, 0)"><g clip-path="url(#4df8c1d281)"><g clip-path="url(#808a36a01b)"><g clip-path="url(#c3f70ea13d)"><g clip-path="url(#38733bf067)"><path fill="#5c6657" d="M 185.445312 125.050781 C 185.878906 126.453125 186.347656 127.84375 186.851562 129.226562 C 187.351562 130.605469 187.890625 131.972656 188.457031 133.328125 C 189.027344 134.679688 189.628906 136.019531 190.265625 137.34375 C 190.902344 138.667969 191.566406 139.976562 192.269531 141.269531 C 192.96875 142.5625 193.699219 143.835938 194.460938 145.089844 C 195.222656 146.347656 196.015625 147.582031 196.835938 148.800781 C 197.660156 150.015625 198.511719 151.210938 199.394531 152.386719 C 200.277344 153.5625 201.183594 154.714844 202.125 155.847656 C 203.0625 156.976562 204.027344 158.082031 205.019531 159.167969 C 206.011719 160.25 207.03125 161.308594 208.074219 162.339844 C 209.117188 163.375 210.1875 164.378906 211.28125 165.359375 C 212.375 166.339844 213.492188 167.292969 214.632812 168.21875 C 215.773438 169.144531 216.9375 170.042969 218.121094 170.910156 C 219.304688 171.78125 220.511719 172.621094 221.738281 173.429688 C 222.964844 174.238281 224.207031 175.015625 225.472656 175.765625 C 226.734375 176.515625 228.019531 177.230469 229.316406 177.917969 C 230.617188 178.601562 231.933594 179.253906 233.261719 179.875 C 234.59375 180.496094 235.941406 181.085938 237.300781 181.640625 C 238.660156 182.195312 240.035156 182.714844 241.417969 183.203125 C 242.804688 183.691406 244.203125 184.140625 245.609375 184.5625 C 247.019531 184.980469 248.4375 185.363281 249.863281 185.714844 C 251.289062 186.0625 252.722656 186.375 254.167969 186.65625 C 255.609375 186.933594 257.058594 187.175781 258.511719 187.382812 C 259.964844 187.59375 261.425781 187.765625 262.886719 187.898438 C 264.347656 188.035156 265.816406 188.136719 267.28125 188.199219 C 268.75 188.265625 270.21875 188.292969 271.6875 188.285156 C 273.15625 188.277344 274.625 188.230469 276.089844 188.152344 C 277.558594 188.070312 279.019531 187.957031 280.484375 187.804688 C 281.945312 187.652344 283.398438 187.464844 284.851562 187.242188 C 286.304688 187.015625 287.75 186.757812 289.1875 186.464844 C 290.628906 186.167969 292.058594 185.839844 293.480469 185.476562 C 294.90625 185.109375 296.316406 184.710938 297.722656 184.277344 C 299.125 183.84375 300.515625 183.375 301.898438 182.871094 C 303.277344 182.371094 304.644531 181.832031 306 181.265625 C 307.351562 180.695312 308.691406 180.09375 310.015625 179.457031 C 311.339844 178.820312 312.648438 178.152344 313.941406 177.453125 C 315.234375 176.753906 316.507812 176.023438 317.761719 175.261719 C 319.019531 174.5 320.253906 173.707031 321.472656 172.886719 C 322.6875 172.0625 323.886719 171.210938 325.058594 170.328125 C 326.234375 169.445312 327.386719 168.539062 328.519531 167.597656 C 329.648438 166.660156 330.753906 165.695312 331.839844 164.703125 C 332.921875 163.710938 333.980469 162.691406 335.011719 161.648438 C 336.046875 160.605469 337.050781 159.535156 338.03125 158.441406 C 339.011719 157.347656 339.964844 156.230469 340.890625 155.089844 C 341.816406 153.949219 342.714844 152.785156 343.582031 151.601562 C 344.453125 150.417969 345.292969 149.210938 346.101562 147.984375 C 346.910156 146.757812 347.6875 145.515625 348.4375 144.25 C 349.1875 142.988281 349.902344 141.703125 350.589844 140.40625 C 351.273438 139.105469 351.925781 137.789062 352.546875 136.460938 C 353.167969 135.128906 353.757812 133.78125 354.3125 132.421875 C 354.867188 131.0625 355.386719 129.6875 355.875 128.304688 C 356.363281 126.917969 356.816406 125.519531 357.234375 124.113281 C 357.652344 122.703125 358.035156 121.285156 358.386719 119.859375 C 358.734375 118.433594 359.046875 117 359.328125 115.554688 C 359.605469 114.113281 359.847656 112.664062 360.054688 111.210938 C 360.265625 109.757812 360.4375 108.296875 360.570312 106.835938 C 360.707031 105.375 360.808594 103.90625 360.871094 102.441406 C 360.9375 100.972656 360.964844 99.503906 360.957031 98.035156 C 360.949219 96.566406 360.902344 95.097656 360.824219 93.632812 C 360.742188 92.164062 360.628906 90.699219 360.476562 89.238281 C 360.324219 87.777344 360.136719 86.324219 359.914062 84.871094 C 359.6875 83.417969 359.429688 81.972656 359.136719 80.535156 C 358.839844 79.09375 358.511719 77.664062 358.148438 76.242188 C 357.78125 74.816406 357.382812 73.40625 356.949219 72 C 356.515625 70.597656 356.046875 69.207031 355.542969 67.824219 C 355.042969 66.445312 354.503906 65.078125 353.9375 63.722656 C 353.367188 62.371094 352.765625 61.03125 352.128906 59.707031 C 351.492188 58.382812 350.828125 57.074219 350.125 55.78125 C 349.425781 54.488281 348.695312 53.214844 347.933594 51.960938 C 347.171875 50.703125 346.378906 49.46875 345.558594 48.25 C 344.734375 47.035156 343.882812 45.835938 343 44.664062 C 342.117188 43.488281 341.210938 42.335938 340.269531 41.203125 C 339.332031 40.074219 338.367188 38.96875 337.375 37.882812 C 336.382812 36.800781 335.363281 35.742188 334.320312 34.710938 C 333.277344 33.675781 332.207031 32.671875 331.113281 31.6875 C 330.019531 30.707031 328.902344 29.753906 327.761719 28.828125 C 326.621094 27.902344 325.457031 27.007812 324.273438 26.136719 C 323.089844 25.269531 321.882812 24.429688 320.65625 23.621094 C 319.429688 22.8125 318.1875 22.03125 316.921875 21.285156 C 315.660156 20.535156 314.375 19.820312 313.078125 19.132812 C 311.777344 18.449219 310.460938 17.796875 309.132812 17.175781 C 307.800781 16.554688 306.453125 15.964844 305.09375 15.410156 C 303.734375 14.855469 302.359375 14.335938 300.976562 13.847656 C 299.589844 13.359375 298.191406 12.90625 296.785156 12.488281 C 295.375 12.070312 293.957031 11.6875 292.53125 11.335938 C 291.105469 10.988281 289.671875 10.675781 288.226562 10.394531 C 286.785156 10.117188 285.335938 9.875 283.882812 9.664062 C 282.429688 9.457031 280.96875 9.285156 279.507812 9.152344 C 278.046875 9.015625 276.578125 8.914062 275.113281 8.851562 C 273.644531 8.785156 272.175781 8.757812 270.707031 8.765625 C 269.238281 8.773438 267.769531 8.820312 266.304688 8.898438 C 264.835938 8.980469 263.375 9.09375 261.910156 9.246094 C 260.449219 9.398438 258.996094 9.585938 257.542969 9.808594 C 256.089844 10.03125 254.644531 10.292969 253.207031 10.585938 C 251.765625 10.882812 250.335938 11.210938 248.914062 11.574219 C 247.488281 11.941406 246.078125 12.339844 244.671875 12.773438 C 243.269531 13.207031 241.878906 13.675781 240.496094 14.179688 C 239.117188 14.679688 237.75 15.214844 236.394531 15.785156 C 235.042969 16.355469 233.703125 16.957031 232.378906 17.59375 C 231.054688 18.230469 229.746094 18.894531 228.453125 19.597656 C 227.160156 20.296875 225.886719 21.027344 224.632812 21.789062 C 223.375 22.550781 222.140625 23.34375 220.921875 24.164062 C 219.707031 24.988281 218.507812 25.839844 217.335938 26.722656 C 216.160156 27.601562 215.007812 28.511719 213.875 29.453125 C 212.746094 30.390625 211.640625 31.355469 210.554688 32.347656 C 209.472656 33.339844 208.414062 34.359375 207.382812 35.402344 C 206.347656 36.445312 205.34375 37.515625 204.363281 38.609375 C 203.378906 39.703125 202.425781 40.820312 201.503906 41.960938 C 200.578125 43.101562 199.679688 44.265625 198.808594 45.449219 C 197.941406 46.632812 197.101562 47.839844 196.292969 49.066406 C 195.484375 50.289062 194.703125 51.535156 193.957031 52.800781 C 193.207031 54.0625 192.492188 55.347656 191.804688 56.644531 C 191.121094 57.945312 190.46875 59.257812 189.847656 60.589844 C 189.226562 61.921875 188.636719 63.269531 188.082031 64.628906 C 187.527344 65.988281 187.007812 67.363281 186.519531 68.746094 C 186.03125 70.132812 185.578125 71.53125 185.160156 72.9375 C 184.742188 74.347656 184.359375 75.765625 184.007812 77.191406 C 183.660156 78.617188 183.347656 80.050781 183.066406 81.496094 C 182.789062 82.9375 182.546875 84.386719 182.339844 85.839844 C 182.128906 87.292969 181.957031 88.753906 181.824219 90.214844 C 181.6875 91.675781 181.585938 93.140625 181.523438 94.609375 C 181.457031 96.078125 181.429688 97.546875 181.4375 99.015625 C 181.445312 100.484375 181.492188 101.953125 181.570312 103.417969 C 181.652344 104.886719 181.765625 106.347656 181.917969 107.808594 C 182.070312 109.273438 182.257812 110.726562 182.480469 112.179688 C 182.707031 113.632812 182.964844 115.078125 183.257812 116.515625 C 183.554688 117.957031 183.882812 119.386719 184.246094 120.808594 C 184.613281 122.234375 185.011719 123.644531 185.445312 125.050781 Z M 185.445312 125.050781 " fill-opacity="1" fill-rule="nonzero"/></g></g></g><g clip-path="url(#5858397d47)"><g clip-path="url(#dd4eddc3e1)"><g clip-path="url(#4eb8ee53ec)"><path fill="#5c6657" d="M 298.125 185.570312 C 299.898438 185.019531 301.652344 184.414062 303.386719 183.757812 C 305.125 183.097656 306.835938 182.386719 308.527344 181.625 C 310.21875 180.859375 311.886719 180.046875 313.527344 179.179688 C 315.171875 178.316406 316.785156 177.402344 318.371094 176.4375 C 319.957031 175.472656 321.511719 174.460938 323.035156 173.402344 C 324.558594 172.339844 326.046875 171.238281 327.503906 170.085938 C 328.960938 168.933594 330.378906 167.742188 331.761719 166.503906 C 333.144531 165.265625 334.488281 163.984375 335.792969 162.664062 C 337.097656 161.34375 338.359375 159.988281 339.582031 158.589844 C 340.800781 157.191406 341.980469 155.757812 343.113281 154.289062 C 344.246094 152.816406 345.332031 151.316406 346.375 149.777344 C 347.414062 148.242188 348.40625 146.675781 349.351562 145.078125 C 350.296875 143.480469 351.195312 141.855469 352.039062 140.203125 C 352.882812 138.550781 353.679688 136.875 354.421875 135.175781 C 355.164062 133.472656 355.855469 131.75 356.492188 130.007812 C 357.128906 128.265625 357.710938 126.503906 358.242188 124.726562 C 358.769531 122.945312 359.246094 121.152344 359.664062 119.347656 C 360.082031 117.539062 360.445312 115.71875 360.753906 113.890625 C 361.0625 112.058594 361.3125 110.21875 361.507812 108.375 C 361.703125 106.53125 361.84375 104.679688 361.925781 102.824219 C 362.007812 100.972656 362.03125 99.117188 362 97.261719 C 361.96875 95.40625 361.878906 93.550781 361.734375 91.703125 C 361.585938 89.851562 361.386719 88.007812 361.128906 86.171875 C 360.867188 84.332031 360.554688 82.503906 360.183594 80.6875 C 359.8125 78.867188 359.386719 77.0625 358.90625 75.269531 C 358.425781 73.476562 357.890625 71.699219 357.300781 69.941406 C 356.710938 68.183594 356.066406 66.441406 355.371094 64.722656 C 354.671875 63 353.925781 61.304688 353.125 59.628906 C 352.324219 57.957031 351.472656 56.308594 350.570312 54.683594 C 349.667969 53.0625 348.71875 51.46875 347.71875 49.90625 C 346.71875 48.34375 345.671875 46.8125 344.578125 45.3125 C 343.484375 43.8125 342.347656 42.347656 341.164062 40.917969 C 339.980469 39.488281 338.757812 38.09375 337.488281 36.738281 C 336.21875 35.382812 334.910156 34.070312 333.5625 32.796875 C 332.210938 31.519531 330.824219 30.289062 329.402344 29.097656 C 327.976562 27.910156 326.515625 26.765625 325.023438 25.664062 C 323.527344 24.5625 322 23.511719 320.441406 22.503906 C 318.882812 21.496094 317.292969 20.539062 315.675781 19.628906 C 314.058594 18.722656 312.414062 17.863281 310.742188 17.054688 C 309.074219 16.246094 307.378906 15.488281 305.664062 14.785156 C 303.945312 14.078125 302.207031 13.429688 300.453125 12.832031 C 298.695312 12.230469 296.921875 11.6875 295.132812 11.199219 C 293.339844 10.710938 291.539062 10.273438 289.71875 9.894531 C 287.902344 9.515625 286.078125 9.195312 284.242188 8.925781 C 282.402344 8.660156 280.5625 8.449219 278.710938 8.296875 C 276.863281 8.140625 275.007812 8.042969 273.152344 8.003906 C 271.296875 7.964844 269.445312 7.980469 267.589844 8.054688 C 265.734375 8.125 263.882812 8.257812 262.039062 8.445312 C 260.191406 8.628906 258.351562 8.875 256.519531 9.171875 C 254.6875 9.472656 252.867188 9.828125 251.058594 10.238281 C 249.25 10.648438 247.453125 11.113281 245.671875 11.636719 C 243.890625 12.15625 242.128906 12.730469 240.382812 13.359375 C 238.636719 13.992188 236.910156 14.671875 235.207031 15.40625 C 233.5 16.140625 231.820312 16.929688 230.164062 17.765625 C 228.507812 18.605469 226.878906 19.492188 225.277344 20.429688 C 223.675781 21.367188 222.105469 22.351562 220.566406 23.386719 C 219.023438 24.421875 217.515625 25.5 216.039062 26.628906 C 214.566406 27.753906 213.125 28.925781 211.722656 30.140625 C 210.320312 31.355469 208.957031 32.609375 207.628906 33.910156 C 206.304688 35.207031 205.019531 36.542969 203.773438 37.921875 C 202.527344 39.296875 201.328125 40.710938 200.171875 42.164062 C 199.011719 43.613281 197.902344 45.097656 196.835938 46.617188 C 195.769531 48.136719 194.75 49.6875 193.777344 51.265625 C 192.804688 52.847656 191.882812 54.457031 191.011719 56.097656 C 190.136719 57.734375 189.316406 59.398438 188.542969 61.085938 C 187.773438 62.773438 187.054688 64.484375 186.390625 66.214844 C 185.722656 67.949219 185.109375 69.699219 184.550781 71.46875 C 183.992188 73.238281 183.488281 75.023438 183.039062 76.824219 C 182.589844 78.625 182.195312 80.4375 181.859375 82.261719 C 181.519531 84.085938 181.238281 85.921875 181.011719 87.761719 C 180.785156 89.605469 180.617188 91.453125 180.503906 93.304688 C 180.390625 95.15625 180.335938 97.011719 180.335938 98.867188 C 180.335938 100.722656 180.394531 102.578125 180.507812 104.429688 C 180.625 106.28125 180.792969 108.128906 181.023438 109.96875 C 181.25 111.8125 181.535156 113.644531 181.875 115.46875 C 182.214844 117.292969 182.609375 119.105469 183.0625 120.90625 C 183.511719 122.707031 184.019531 124.492188 184.578125 126.261719 C 185.140625 128.03125 185.753906 129.78125 186.421875 131.511719 C 187.089844 133.242188 187.808594 134.953125 188.582031 136.640625 C 189.355469 138.328125 190.179688 139.992188 191.054688 141.628906 C 191.929688 143.265625 192.851562 144.871094 193.824219 146.453125 C 194.796875 148.035156 195.820312 149.582031 196.886719 151.101562 C 197.953125 152.617188 199.070312 154.101562 200.226562 155.550781 C 201.386719 157 202.589844 158.414062 203.835938 159.789062 C 205.082031 161.164062 206.367188 162.5 207.695312 163.796875 C 209.023438 165.09375 210.386719 166.351562 211.792969 167.5625 C 213.195312 168.777344 214.636719 169.945312 216.113281 171.070312 C 217.589844 172.195312 219.097656 173.273438 220.640625 174.304688 C 222.183594 175.339844 223.753906 176.324219 225.359375 177.257812 C 226.960938 178.195312 228.589844 179.082031 230.246094 179.917969 C 231.902344 180.753906 233.585938 181.539062 235.289062 182.273438 C 236.996094 183.003906 238.71875 183.683594 240.464844 184.3125 C 242.214844 184.941406 243.976562 185.511719 245.757812 186.03125 C 247.539062 186.550781 249.335938 187.015625 251.148438 187.425781 C 252.957031 187.835938 254.777344 188.1875 256.609375 188.484375 C 258.441406 188.78125 260.28125 189.023438 262.128906 189.207031 C 268.1875 189.820312 274.25 189.816406 280.3125 189.203125 C 286.371094 188.59375 292.3125 187.378906 298.125 185.570312 Z M 245.078125 14.066406 C 291.644531 -0.335938 341.253906 25.835938 355.65625 72.402344 C 370.058594 118.964844 343.890625 168.578125 297.320312 182.980469 C 250.75 197.386719 201.144531 171.21875 186.742188 124.648438 C 172.335938 78.082031 198.503906 28.472656 245.078125 14.066406 Z M 245.078125 14.066406 " fill-opacity="1" fill-rule="nonzero"/></g></g></g><g clip-path="url(#21f041ec19)"><g clip-path="url(#9e500fa310)"><g clip-path="url(#9be2040bf3)"><path fill="#ffffff" d="M 296.054688 118.210938 C 296.265625 118.898438 296.542969 119.558594 296.886719 120.191406 C 297.226562 120.824219 297.628906 121.414062 298.085938 121.96875 C 298.546875 122.519531 299.054688 123.023438 299.613281 123.476562 C 300.171875 123.929688 300.769531 124.324219 301.402344 124.660156 C 302.039062 124.996094 302.703125 125.265625 303.390625 125.46875 C 304.078125 125.675781 304.78125 125.8125 305.496094 125.878906 C 306.214844 125.945312 306.929688 125.941406 307.644531 125.867188 C 308.359375 125.792969 309.058594 125.648438 309.746094 125.433594 C 310.433594 125.222656 311.09375 124.945312 311.722656 124.601562 C 312.355469 124.261719 312.949219 123.859375 313.5 123.402344 C 314.054688 122.941406 314.558594 122.433594 315.011719 121.875 C 315.464844 121.316406 315.859375 120.722656 316.195312 120.085938 C 316.527344 119.449219 316.800781 118.785156 317.003906 118.097656 C 317.207031 117.410156 317.34375 116.707031 317.410156 115.992188 C 317.476562 115.273438 317.472656 114.558594 317.398438 113.84375 C 317.324219 113.128906 317.179688 112.429688 316.96875 111.742188 C 316.757812 111.054688 316.480469 110.398438 316.136719 109.765625 C 315.792969 109.132812 315.394531 108.539062 314.933594 107.988281 C 314.476562 107.433594 313.96875 106.929688 313.410156 106.476562 C 312.851562 106.023438 312.253906 105.628906 311.617188 105.296875 C 310.984375 104.960938 310.320312 104.691406 309.632812 104.484375 C 308.941406 104.28125 308.242188 104.144531 307.523438 104.078125 C 306.808594 104.011719 306.09375 104.015625 305.378906 104.089844 C 304.664062 104.164062 303.964844 104.308594 303.277344 104.519531 C 302.589844 104.730469 301.929688 105.007812 301.296875 105.351562 C 300.667969 105.695312 300.074219 106.09375 299.519531 106.554688 C 298.96875 107.011719 298.464844 107.519531 298.011719 108.078125 C 297.558594 108.636719 297.164062 109.234375 296.828125 109.871094 C 296.492188 110.503906 296.222656 111.167969 296.019531 111.855469 C 295.8125 112.546875 295.679688 113.25 295.613281 113.964844 C 295.542969 114.679688 295.546875 115.394531 295.621094 116.109375 C 295.699219 116.824219 295.839844 117.527344 296.054688 118.210938 Z M 296.054688 118.210938 " fill-opacity="1" fill-rule="nonzero"/></g></g></g><g clip-path="url(#c5856db2e3)"><g clip-path="url(#622defe48d)"><g clip-path="url(#e3a8bb7703)"><path fill="#ffffff" d="M 259.085938 72.789062 C 259.300781 73.476562 259.578125 74.136719 259.917969 74.765625 C 260.261719 75.398438 260.664062 75.992188 261.121094 76.542969 C 261.582031 77.097656 262.089844 77.601562 262.648438 78.054688 C 263.207031 78.507812 263.800781 78.902344 264.4375 79.238281 C 265.074219 79.570312 265.734375 79.84375 266.425781 80.046875 C 267.113281 80.25 267.816406 80.386719 268.53125 80.453125 C 269.246094 80.519531 269.960938 80.515625 270.679688 80.441406 C 271.394531 80.367188 272.09375 80.222656 272.78125 80.011719 C 273.46875 79.800781 274.125 79.523438 274.757812 79.179688 C 275.390625 78.835938 275.984375 78.4375 276.535156 77.976562 C 277.089844 77.519531 277.59375 77.011719 278.046875 76.453125 C 278.5 75.894531 278.890625 75.296875 279.226562 74.660156 C 279.5625 74.027344 279.832031 73.363281 280.039062 72.675781 C 280.242188 71.984375 280.378906 71.285156 280.445312 70.566406 C 280.511719 69.851562 280.507812 69.136719 280.433594 68.421875 C 280.359375 67.707031 280.214844 67.007812 280.003906 66.320312 C 279.789062 65.632812 279.511719 64.972656 279.171875 64.339844 C 278.828125 63.710938 278.429688 63.117188 277.96875 62.5625 C 277.511719 62.011719 277 61.507812 276.445312 61.054688 C 275.886719 60.601562 275.289062 60.207031 274.652344 59.871094 C 274.015625 59.535156 273.355469 59.265625 272.664062 59.0625 C 271.976562 58.855469 271.273438 58.722656 270.558594 58.65625 C 269.84375 58.585938 269.128906 58.589844 268.414062 58.667969 C 267.699219 58.742188 266.996094 58.882812 266.308594 59.097656 C 265.625 59.308594 264.964844 59.585938 264.332031 59.929688 C 263.699219 60.269531 263.109375 60.671875 262.554688 61.128906 C 262 61.589844 261.5 62.097656 261.046875 62.65625 C 260.59375 63.214844 260.199219 63.8125 259.863281 64.445312 C 259.527344 65.082031 259.257812 65.746094 259.050781 66.433594 C 258.847656 67.121094 258.710938 67.824219 258.644531 68.539062 C 258.578125 69.257812 258.582031 69.972656 258.65625 70.6875 C 258.730469 71.402344 258.875 72.101562 259.085938 72.789062 Z M 259.085938 72.789062 " fill-opacity="1" fill-rule="nonzero"/></g></g></g><g clip-path="url(#44d6232fdc)"><g clip-path="url(#0bb1eb70d2)"><g clip-path="url(#d1ee303fed)"><path fill="#ffffff" d="M 231.332031 126.832031 C 231.546875 127.519531 231.824219 128.179688 232.164062 128.8125 C 232.507812 129.445312 232.910156 130.035156 233.367188 130.589844 C 233.828125 131.144531 234.335938 131.644531 234.894531 132.097656 C 235.453125 132.550781 236.046875 132.945312 236.683594 133.28125 C 237.320312 133.617188 237.980469 133.886719 238.671875 134.089844 C 239.359375 134.296875 240.0625 134.433594 240.777344 134.5 C 241.492188 134.566406 242.207031 134.5625 242.925781 134.488281 C 243.640625 134.414062 244.339844 134.269531 245.027344 134.058594 C 245.714844 133.84375 246.371094 133.566406 247.003906 133.226562 C 247.636719 132.882812 248.230469 132.480469 248.78125 132.023438 C 249.335938 131.5625 249.839844 131.054688 250.292969 130.496094 C 250.746094 129.9375 251.136719 129.34375 251.472656 128.707031 C 251.808594 128.070312 252.078125 127.410156 252.285156 126.71875 C 252.488281 126.03125 252.625 125.328125 252.691406 124.613281 C 252.757812 123.898438 252.753906 123.179688 252.679688 122.464844 C 252.605469 121.75 252.460938 121.050781 252.25 120.363281 C 252.035156 119.675781 251.757812 119.019531 251.417969 118.386719 C 251.074219 117.753906 250.675781 117.160156 250.214844 116.609375 C 249.757812 116.054688 249.246094 115.550781 248.691406 115.097656 C 248.132812 114.644531 247.535156 114.25 246.898438 113.917969 C 246.261719 113.582031 245.601562 113.3125 244.910156 113.105469 C 244.222656 112.902344 243.519531 112.765625 242.804688 112.699219 C 242.089844 112.632812 241.375 112.636719 240.660156 112.710938 C 239.945312 112.785156 239.242188 112.929688 238.558594 113.140625 C 237.871094 113.351562 237.210938 113.628906 236.578125 113.972656 C 235.945312 114.316406 235.355469 114.714844 234.800781 115.175781 C 234.246094 115.632812 233.746094 116.140625 233.292969 116.699219 C 232.839844 117.257812 232.445312 117.855469 232.109375 118.492188 C 231.773438 119.128906 231.503906 119.789062 231.296875 120.476562 C 231.09375 121.167969 230.957031 121.871094 230.890625 122.585938 C 230.824219 123.300781 230.828125 124.015625 230.902344 124.730469 C 230.976562 125.445312 231.121094 126.148438 231.332031 126.832031 Z M 231.332031 126.832031 " fill-opacity="1" fill-rule="nonzero"/></g></g></g><g clip-path="url(#2e440b727f)"><g clip-path="url(#9aaa0d8c3a)"><g clip-path="url(#32d294fbeb)"><path fill="#ffffff" d="M 185.777344 81.429688 C 185.667969 82.164062 185.59375 82.894531 185.558594 83.628906 C 185.523438 84.359375 185.523438 85.074219 185.5625 85.773438 C 185.597656 86.472656 185.671875 87.144531 185.785156 87.785156 C 185.894531 88.425781 186.039062 89.023438 186.21875 89.582031 C 186.398438 90.140625 186.609375 90.644531 186.851562 91.097656 C 187.089844 91.550781 187.359375 91.941406 187.652344 92.273438 C 187.945312 92.605469 188.257812 92.867188 188.59375 93.066406 C 188.929688 93.261719 189.277344 93.386719 189.640625 93.441406 C 190.003906 93.496094 190.375 93.476562 190.75 93.386719 C 191.128906 93.296875 191.503906 93.132812 191.882812 92.902344 C 192.257812 92.671875 192.628906 92.375 192.992188 92.011719 C 193.355469 91.648438 193.703125 91.226562 194.035156 90.742188 C 194.371094 90.261719 194.683594 89.730469 194.976562 89.148438 C 195.269531 88.570312 195.535156 87.949219 195.773438 87.289062 C 196.011719 86.632812 196.222656 85.949219 196.398438 85.238281 C 196.578125 84.527344 196.722656 83.804688 196.832031 83.070312 C 196.941406 82.335938 197.011719 81.601562 197.050781 80.871094 C 197.085938 80.140625 197.085938 79.425781 197.046875 78.726562 C 197.007812 78.027344 196.933594 77.355469 196.824219 76.714844 C 196.710938 76.074219 196.566406 75.472656 196.386719 74.917969 C 196.207031 74.359375 196 73.855469 195.757812 73.402344 C 195.515625 72.949219 195.25 72.554688 194.957031 72.222656 C 194.660156 71.894531 194.347656 71.628906 194.011719 71.433594 C 193.679688 71.238281 193.328125 71.113281 192.964844 71.058594 C 192.605469 71.003906 192.234375 71.023438 191.855469 71.113281 C 191.480469 71.203125 191.101562 71.363281 190.726562 71.597656 C 190.347656 71.828125 189.976562 72.125 189.617188 72.488281 C 189.253906 72.851562 188.90625 73.273438 188.570312 73.753906 C 188.238281 74.238281 187.925781 74.769531 187.632812 75.347656 C 187.339844 75.929688 187.074219 76.550781 186.832031 77.207031 C 186.59375 77.867188 186.386719 78.550781 186.207031 79.261719 C 186.03125 79.96875 185.886719 80.691406 185.777344 81.429688 Z M 185.777344 81.429688 " fill-opacity="1" fill-rule="nonzero"/></g></g></g><g clip-path="url(#23a930fa77)"><g clip-path="url(#2a61e7014b)"><g clip-path="url(#37c6f6fda1)"><path fill="#ffffff" d="M 195.90625 126.742188 C 195.578125 126.90625 195.285156 127.128906 195.023438 127.417969 C 194.765625 127.707031 194.546875 128.054688 194.367188 128.460938 C 194.1875 128.863281 194.054688 129.320312 193.960938 129.824219 C 193.871094 130.328125 193.824219 130.875 193.820312 131.460938 C 193.820312 132.046875 193.863281 132.660156 193.953125 133.304688 C 194.042969 133.949219 194.175781 134.609375 194.351562 135.289062 C 194.53125 135.964844 194.746094 136.648438 195.003906 137.332031 C 195.261719 138.019531 195.550781 138.695312 195.878906 139.363281 C 196.207031 140.027344 196.5625 140.671875 196.949219 141.296875 C 197.335938 141.917969 197.742188 142.507812 198.171875 143.0625 C 198.597656 143.617188 199.039062 144.125 199.496094 144.589844 C 199.953125 145.054688 200.410156 145.464844 200.875 145.820312 C 201.339844 146.179688 201.800781 146.476562 202.257812 146.710938 C 202.710938 146.949219 203.15625 147.117188 203.585938 147.222656 C 204.015625 147.328125 204.421875 147.367188 204.808594 147.339844 C 205.195312 147.3125 205.554688 147.214844 205.882812 147.054688 C 206.210938 146.894531 206.507812 146.667969 206.765625 146.378906 C 207.023438 146.089844 207.242188 145.742188 207.421875 145.339844 C 207.601562 144.933594 207.738281 144.480469 207.828125 143.972656 C 207.921875 143.46875 207.96875 142.925781 207.96875 142.339844 C 207.96875 141.753906 207.925781 141.136719 207.835938 140.492188 C 207.746094 139.847656 207.613281 139.1875 207.4375 138.507812 C 207.261719 137.832031 207.042969 137.148438 206.789062 136.464844 C 206.53125 135.777344 206.238281 135.101562 205.910156 134.4375 C 205.582031 133.769531 205.226562 133.125 204.839844 132.503906 C 204.457031 131.878906 204.050781 131.292969 203.621094 130.738281 C 203.191406 130.183594 202.75 129.671875 202.292969 129.207031 C 201.839844 128.746094 201.378906 128.332031 200.914062 127.976562 C 200.449219 127.621094 199.992188 127.324219 199.535156 127.085938 C 199.078125 126.851562 198.636719 126.679688 198.207031 126.574219 C 197.777344 126.46875 197.367188 126.429688 196.980469 126.457031 C 196.59375 126.488281 196.238281 126.582031 195.90625 126.742188 Z M 195.90625 126.742188 " fill-opacity="1" fill-rule="nonzero"/></g></g></g><g clip-path="url(#149422d80d)"><g clip-path="url(#164ea4eb56)"><g clip-path="url(#738f046a28)"><path fill="#ffffff" d="M 241.265625 173.816406 C 241.164062 174.171875 241.136719 174.539062 241.179688 174.925781 C 241.21875 175.3125 241.332031 175.707031 241.515625 176.109375 C 241.695312 176.511719 241.945312 176.917969 242.257812 177.324219 C 242.574219 177.730469 242.949219 178.128906 243.382812 178.519531 C 243.816406 178.914062 244.304688 179.289062 244.84375 179.652344 C 245.382812 180.019531 245.964844 180.359375 246.585938 180.679688 C 247.210938 181.003906 247.863281 181.296875 248.542969 181.5625 C 249.226562 181.828125 249.921875 182.0625 250.636719 182.265625 C 251.355469 182.46875 252.070312 182.632812 252.792969 182.761719 C 253.511719 182.890625 254.222656 182.980469 254.921875 183.03125 C 255.621094 183.082031 256.292969 183.09375 256.945312 183.066406 C 257.59375 183.035156 258.207031 182.96875 258.78125 182.859375 C 259.359375 182.753906 259.886719 182.609375 260.367188 182.429688 C 260.847656 182.246094 261.269531 182.03125 261.636719 181.78125 C 262 181.53125 262.300781 181.253906 262.539062 180.949219 C 262.777344 180.640625 262.945312 180.308594 263.042969 179.957031 C 263.144531 179.605469 263.171875 179.234375 263.128906 178.847656 C 263.089844 178.464844 262.976562 178.070312 262.796875 177.664062 C 262.613281 177.261719 262.367188 176.859375 262.050781 176.453125 C 261.738281 176.046875 261.363281 175.648438 260.925781 175.253906 C 260.492188 174.863281 260.003906 174.484375 259.464844 174.121094 C 258.925781 173.757812 258.34375 173.414062 257.722656 173.09375 C 257.101562 172.773438 256.449219 172.476562 255.765625 172.210938 C 255.085938 171.945312 254.386719 171.710938 253.671875 171.507812 C 252.957031 171.308594 252.238281 171.144531 251.515625 171.015625 C 250.796875 170.886719 250.085938 170.796875 249.386719 170.746094 C 248.6875 170.691406 248.015625 170.683594 247.363281 170.710938 C 246.714844 170.738281 246.101562 170.808594 245.527344 170.914062 C 244.949219 171.019531 244.421875 171.164062 243.941406 171.347656 C 243.460938 171.527344 243.039062 171.746094 242.675781 171.992188 C 242.308594 172.242188 242.007812 172.519531 241.769531 172.828125 C 241.53125 173.132812 241.363281 173.464844 241.265625 173.816406 Z M 241.265625 173.816406 " fill-opacity="1" fill-rule="nonzero"/></g></g></g><g clip-path="url(#f3c71cc24c)"><g clip-path="url(#80d8a046a1)"><g clip-path="url(#e3500e69b8)"><path fill="#ffffff" d="M 322.316406 154.960938 C 321.765625 155.460938 321.242188 155.980469 320.75 156.523438 C 320.257812 157.066406 319.804688 157.617188 319.390625 158.183594 C 318.972656 158.746094 318.605469 159.3125 318.285156 159.878906 C 317.964844 160.441406 317.695312 160.996094 317.480469 161.542969 C 317.261719 162.085938 317.105469 162.613281 317.003906 163.113281 C 316.902344 163.617188 316.859375 164.089844 316.875 164.53125 C 316.894531 164.972656 316.96875 165.378906 317.101562 165.742188 C 317.234375 166.105469 317.425781 166.421875 317.671875 166.695312 C 317.917969 166.96875 318.214844 167.1875 318.5625 167.359375 C 318.914062 167.527344 319.308594 167.644531 319.746094 167.703125 C 320.183594 167.765625 320.65625 167.769531 321.167969 167.71875 C 321.679688 167.667969 322.214844 167.5625 322.78125 167.402344 C 323.34375 167.242188 323.921875 167.03125 324.515625 166.769531 C 325.113281 166.503906 325.710938 166.195312 326.316406 165.839844 C 326.917969 165.484375 327.511719 165.085938 328.101562 164.652344 C 328.691406 164.214844 329.261719 163.75 329.8125 163.25 C 330.363281 162.753906 330.882812 162.230469 331.375 161.691406 C 331.867188 161.148438 332.320312 160.59375 332.738281 160.03125 C 333.152344 159.464844 333.519531 158.902344 333.839844 158.335938 C 334.164062 157.769531 334.429688 157.214844 334.648438 156.671875 C 334.863281 156.125 335.019531 155.601562 335.121094 155.097656 C 335.222656 154.59375 335.265625 154.121094 335.25 153.679688 C 335.234375 153.238281 335.15625 152.835938 335.023438 152.472656 C 334.890625 152.109375 334.699219 151.789062 334.453125 151.515625 C 334.207031 151.246094 333.910156 151.023438 333.5625 150.855469 C 333.210938 150.683594 332.820312 150.570312 332.382812 150.507812 C 331.941406 150.449219 331.46875 150.445312 330.957031 150.492188 C 330.445312 150.542969 329.910156 150.648438 329.347656 150.808594 C 328.78125 150.96875 328.203125 151.179688 327.609375 151.445312 C 327.011719 151.707031 326.414062 152.015625 325.8125 152.375 C 325.207031 152.730469 324.613281 153.125 324.023438 153.5625 C 323.433594 153.996094 322.867188 154.464844 322.316406 154.960938 Z M 322.316406 154.960938 " fill-opacity="1" fill-rule="nonzero"/></g></g></g><g clip-path="url(#bf33dbdbec)"><g clip-path="url(#6c26ee3ef8)"><g clip-path="url(#8d823fff9e)"><path fill="#ffffff" d="M 347.433594 105.503906 C 347.324219 106.238281 347.25 106.972656 347.214844 107.703125 C 347.179688 108.433594 347.179688 109.152344 347.21875 109.851562 C 347.257812 110.550781 347.332031 111.21875 347.441406 111.859375 C 347.550781 112.5 347.695312 113.101562 347.875 113.660156 C 348.054688 114.214844 348.265625 114.722656 348.507812 115.175781 C 348.75 115.628906 349.015625 116.019531 349.308594 116.351562 C 349.601562 116.683594 349.917969 116.945312 350.25 117.140625 C 350.585938 117.339844 350.933594 117.464844 351.296875 117.515625 C 351.660156 117.570312 352.03125 117.554688 352.40625 117.460938 C 352.785156 117.371094 353.164062 117.210938 353.539062 116.980469 C 353.917969 116.75 354.285156 116.449219 354.648438 116.085938 C 355.011719 115.722656 355.359375 115.300781 355.691406 114.820312 C 356.027344 114.339844 356.339844 113.808594 356.632812 113.226562 C 356.925781 112.644531 357.191406 112.027344 357.429688 111.367188 C 357.671875 110.710938 357.878906 110.023438 358.058594 109.316406 C 358.234375 108.605469 358.378906 107.882812 358.488281 107.148438 C 358.597656 106.414062 358.667969 105.679688 358.707031 104.949219 C 358.742188 104.21875 358.742188 103.5 358.703125 102.800781 C 358.664062 102.101562 358.589844 101.433594 358.480469 100.792969 C 358.371094 100.152344 358.222656 99.550781 358.042969 98.992188 C 357.867188 98.4375 357.65625 97.929688 357.414062 97.476562 C 357.171875 97.023438 356.90625 96.632812 356.613281 96.300781 C 356.320312 95.96875 356.003906 95.707031 355.671875 95.511719 C 355.335938 95.3125 354.988281 95.1875 354.625 95.136719 C 354.261719 95.082031 353.890625 95.097656 353.511719 95.191406 C 353.136719 95.28125 352.757812 95.441406 352.382812 95.671875 C 352.003906 95.902344 351.636719 96.203125 351.273438 96.566406 C 350.910156 96.929688 350.5625 97.351562 350.226562 97.832031 C 349.894531 98.3125 349.582031 98.84375 349.289062 99.425781 C 348.996094 100.007812 348.730469 100.625 348.492188 101.285156 C 348.25 101.941406 348.042969 102.628906 347.863281 103.335938 C 347.6875 104.046875 347.542969 104.769531 347.433594 105.503906 Z M 347.433594 105.503906 " fill-opacity="1" fill-rule="nonzero"/></g></g></g><g clip-path="url(#3f3b732b97)"><g clip-path="url(#b52c64e546)"><g clip-path="url(#f2ccef7da6)"><path fill="#ffffff" d="M 327.566406 38.257812 C 327.28125 38.488281 327.042969 38.769531 326.851562 39.109375 C 326.660156 39.445312 326.523438 39.832031 326.4375 40.265625 C 326.351562 40.699219 326.316406 41.175781 326.335938 41.6875 C 326.359375 42.199219 326.429688 42.742188 326.558594 43.3125 C 326.683594 43.886719 326.859375 44.476562 327.085938 45.085938 C 327.316406 45.695312 327.589844 46.3125 327.910156 46.933594 C 328.226562 47.558594 328.589844 48.175781 328.988281 48.789062 C 329.386719 49.402344 329.820312 50 330.285156 50.578125 C 330.75 51.160156 331.238281 51.710938 331.75 52.234375 C 332.261719 52.757812 332.789062 53.242188 333.324219 53.691406 C 333.863281 54.136719 334.40625 54.539062 334.953125 54.894531 C 335.5 55.25 336.035156 55.550781 336.566406 55.796875 C 337.097656 56.042969 337.613281 56.234375 338.109375 56.363281 C 338.605469 56.496094 339.074219 56.566406 339.515625 56.574219 C 339.957031 56.585938 340.363281 56.535156 340.738281 56.421875 C 341.109375 56.308594 341.4375 56.140625 341.722656 55.910156 C 342.007812 55.679688 342.246094 55.394531 342.4375 55.058594 C 342.628906 54.71875 342.765625 54.335938 342.851562 53.898438 C 342.9375 53.464844 342.972656 52.992188 342.953125 52.480469 C 342.929688 51.96875 342.859375 51.425781 342.730469 50.851562 C 342.605469 50.28125 342.429688 49.691406 342.203125 49.082031 C 341.972656 48.472656 341.699219 47.855469 341.378906 47.230469 C 341.0625 46.609375 340.699219 45.988281 340.300781 45.375 C 339.902344 44.761719 339.46875 44.167969 339.003906 43.585938 C 338.539062 43.007812 338.050781 42.457031 337.539062 41.933594 C 337.027344 41.410156 336.503906 40.921875 335.964844 40.476562 C 335.425781 40.027344 334.882812 39.628906 334.335938 39.273438 C 333.792969 38.917969 333.253906 38.617188 332.722656 38.371094 C 332.191406 38.121094 331.675781 37.933594 331.179688 37.800781 C 330.683594 37.671875 330.214844 37.601562 329.773438 37.589844 C 329.332031 37.582031 328.925781 37.632812 328.554688 37.746094 C 328.179688 37.855469 327.851562 38.027344 327.566406 38.257812 Z M 327.566406 38.257812 " fill-opacity="1" fill-rule="nonzero"/></g></g></g><g clip-path="url(#338e375cf8)"><g clip-path="url(#676ac4b78a)"><g clip-path="url(#a6675e46d5)"><path fill="#ffffff" d="M 277.953125 15.101562 C 277.871094 15.457031 277.863281 15.828125 277.925781 16.210938 C 277.984375 16.59375 278.117188 16.984375 278.320312 17.378906 C 278.523438 17.769531 278.789062 18.160156 279.125 18.550781 C 279.460938 18.941406 279.855469 19.320312 280.308594 19.6875 C 280.765625 20.058594 281.269531 20.410156 281.828125 20.746094 C 282.382812 21.082031 282.980469 21.394531 283.621094 21.683594 C 284.257812 21.972656 284.925781 22.234375 285.617188 22.464844 C 286.3125 22.695312 287.023438 22.894531 287.746094 23.058594 C 288.472656 23.222656 289.199219 23.351562 289.921875 23.441406 C 290.648438 23.535156 291.363281 23.589844 292.0625 23.605469 C 292.765625 23.621094 293.4375 23.597656 294.085938 23.535156 C 294.734375 23.472656 295.339844 23.375 295.910156 23.238281 C 296.480469 23.101562 297 22.929688 297.472656 22.722656 C 297.941406 22.515625 298.351562 22.28125 298.703125 22.011719 C 299.058594 21.746094 299.34375 21.453125 299.566406 21.132812 C 299.785156 20.816406 299.9375 20.476562 300.019531 20.117188 C 300.101562 19.761719 300.109375 19.390625 300.046875 19.007812 C 299.988281 18.625 299.855469 18.238281 299.652344 17.84375 C 299.453125 17.449219 299.183594 17.058594 298.847656 16.667969 C 298.511719 16.28125 298.117188 15.902344 297.664062 15.53125 C 297.210938 15.160156 296.703125 14.808594 296.144531 14.472656 C 295.589844 14.136719 294.992188 13.824219 294.351562 13.535156 C 293.714844 13.246094 293.050781 12.988281 292.355469 12.753906 C 291.660156 12.523438 290.949219 12.328125 290.226562 12.160156 C 289.5 11.996094 288.777344 11.867188 288.050781 11.777344 C 287.324219 11.683594 286.609375 11.632812 285.910156 11.617188 C 285.210938 11.601562 284.535156 11.625 283.886719 11.6875 C 283.238281 11.746094 282.632812 11.847656 282.0625 11.984375 C 281.492188 12.121094 280.972656 12.289062 280.503906 12.496094 C 280.03125 12.703125 279.621094 12.941406 279.269531 13.207031 C 278.914062 13.472656 278.628906 13.765625 278.40625 14.085938 C 278.1875 14.40625 278.035156 14.742188 277.953125 15.101562 Z M 277.953125 15.101562 " fill-opacity="1" fill-rule="nonzero"/></g></g></g><g clip-path="url(#189b712f68)"><g clip-path="url(#1cbce8e3e0)"><g clip-path="url(#4e31ca3acd)"><path fill="#ffffff" d="M 212.226562 33.058594 C 211.648438 33.519531 211.09375 34.007812 210.570312 34.519531 C 210.046875 35.027344 209.558594 35.554688 209.109375 36.089844 C 208.660156 36.628906 208.261719 37.171875 207.90625 37.714844 C 207.550781 38.261719 207.246094 38.796875 207 39.328125 C 206.75 39.859375 206.558594 40.371094 206.429688 40.867188 C 206.296875 41.363281 206.222656 41.832031 206.214844 42.277344 C 206.203125 42.71875 206.253906 43.125 206.363281 43.496094 C 206.476562 43.867188 206.648438 44.195312 206.875 44.484375 C 207.105469 44.769531 207.386719 45.007812 207.726562 45.199219 C 208.0625 45.390625 208.449219 45.53125 208.882812 45.617188 C 209.316406 45.703125 209.789062 45.738281 210.304688 45.71875 C 210.816406 45.699219 211.359375 45.628906 211.929688 45.503906 C 212.503906 45.378906 213.09375 45.203125 213.703125 44.976562 C 214.3125 44.75 214.929688 44.476562 215.554688 44.15625 C 216.179688 43.839844 216.796875 43.480469 217.410156 43.082031 C 218.023438 42.683594 218.621094 42.25 219.203125 41.789062 C 219.785156 41.324219 220.335938 40.835938 220.859375 40.328125 C 221.386719 39.816406 221.871094 39.292969 222.320312 38.753906 C 222.769531 38.214844 223.171875 37.675781 223.527344 37.128906 C 223.882812 36.585938 224.183594 36.046875 224.433594 35.515625 C 224.679688 34.984375 224.871094 34.472656 225.003906 33.976562 C 225.136719 33.480469 225.207031 33.011719 225.21875 32.570312 C 225.226562 32.128906 225.175781 31.71875 225.066406 31.347656 C 224.953125 30.976562 224.785156 30.648438 224.554688 30.359375 C 224.328125 30.074219 224.042969 29.835938 223.707031 29.644531 C 223.367188 29.453125 222.980469 29.316406 222.546875 29.226562 C 222.113281 29.140625 221.640625 29.105469 221.128906 29.125 C 220.617188 29.144531 220.074219 29.21875 219.5 29.34375 C 218.929688 29.46875 218.335938 29.644531 217.726562 29.871094 C 217.117188 30.09375 216.5 30.367188 215.875 30.6875 C 215.253906 31.003906 214.632812 31.363281 214.019531 31.761719 C 213.40625 32.160156 212.808594 32.59375 212.226562 33.058594 Z M 212.226562 33.058594 " fill-opacity="1" fill-rule="nonzero"/></g></g></g><g clip-path="url(#b5ea0c9301)"><g clip-path="url(#20a4331d79)"><g clip-path="url(#fa2e5ca177)"><path fill="#5c6657" d="M 182.875 54.996094 C 181.246094 56.019531 179.648438 57.097656 178.066406 58.191406 C 176.484375 59.289062 174.925781 60.421875 173.375 61.570312 C 170.28125 63.867188 167.234375 66.230469 164.242188 68.664062 C 161.242188 71.09375 158.296875 73.585938 155.386719 76.121094 C 154.660156 76.757812 153.941406 77.398438 153.21875 78.039062 L 152.136719 79.003906 L 151.070312 79.976562 L 148.925781 81.921875 L 146.804688 83.894531 C 141.164062 89.167969 135.710938 94.648438 130.414062 100.28125 C 129.085938 101.6875 127.773438 103.105469 126.472656 104.535156 C 125.171875 105.960938 123.890625 107.414062 122.601562 108.851562 C 120.042969 111.75 117.523438 114.6875 115.046875 117.660156 C 114.421875 118.398438 113.8125 119.148438 113.199219 119.902344 L 111.371094 122.152344 C 110.753906 122.898438 110.15625 123.65625 109.558594 124.421875 L 107.757812 126.695312 L 106.855469 127.828125 L 105.972656 128.984375 L 104.214844 131.292969 C 103.03125 132.824219 101.898438 134.390625 100.738281 135.945312 C 96.136719 142.175781 91.75 148.5625 87.519531 155.050781 C 79.074219 168.066406 71.425781 181.539062 64.566406 195.457031 C 63.691406 197.1875 62.878906 198.945312 62.050781 200.695312 C 61.21875 202.449219 60.382812 204.203125 59.597656 205.96875 L 57.214844 211.269531 L 54.929688 216.617188 C 54.15625 218.394531 53.457031 220.203125 52.726562 221.992188 C 52 223.785156 51.261719 225.578125 50.59375 227.402344 L 48.53125 232.835938 C 47.863281 234.652344 47.226562 236.484375 46.578125 238.308594 L 45.613281 241.050781 L 44.699219 243.824219 C 44.09375 245.664062 43.46875 247.496094 42.882812 249.34375 C 41.742188 253.046875 40.574219 256.738281 39.554688 260.480469 L 38.765625 263.273438 L 38.371094 264.675781 C 38.230469 265.148438 38.121094 265.609375 37.996094 266.074219 L 36.53125 271.695312 L 36.171875 273.101562 C 36.054688 273.570312 35.949219 274.042969 35.835938 274.511719 L 35.167969 277.339844 L 34.507812 280.164062 L 34.171875 281.574219 C 34.066406 282.046875 33.96875 282.523438 33.867188 282.992188 L 32.664062 288.671875 L 32.367188 290.089844 C 32.265625 290.5625 32.183594 291.039062 32.09375 291.515625 L 31.558594 294.367188 L 31.019531 297.21875 C 30.84375 298.167969 30.652344 299.117188 30.503906 300.070312 L 29.570312 305.792969 C 29.417969 306.75 29.246094 307.699219 29.117188 308.65625 L 28.714844 311.527344 L 27.917969 317.265625 L 27.257812 323.023438 L 26.925781 325.898438 C 26.816406 326.855469 26.742188 327.820312 26.652344 328.78125 L 26.136719 334.546875 L 26.011719 335.988281 L 25.914062 337.429688 L 25.726562 340.316406 L 25.542969 343.203125 L 25.449219 344.648438 L 25.40625 345.375 L 25.375 346.09375 L 25.144531 351.875 L 25.039062 354.753906 C 25.003906 355.714844 25 356.679688 24.984375 357.644531 L 24.910156 363.421875 L 24.894531 364.863281 L 24.914062 366.308594 L 24.953125 369.195312 C 24.980469 371.121094 25.015625 373.042969 25.054688 374.964844 L 25.515625 369.214844 L 25.738281 366.339844 L 25.847656 364.902344 L 25.988281 363.46875 L 26.527344 357.734375 C 26.621094 356.777344 26.695312 355.820312 26.800781 354.867188 L 27.121094 352.007812 L 27.757812 346.285156 L 27.835938 345.570312 L 27.929688 344.855469 L 28.117188 343.429688 L 28.492188 340.582031 L 28.863281 337.730469 L 29.046875 336.304688 L 29.257812 334.886719 L 30.113281 329.207031 L 30.328125 327.789062 C 30.394531 327.316406 30.460938 326.84375 30.546875 326.371094 L 31.027344 323.539062 L 31.980469 317.882812 L 33.046875 312.242188 L 33.578125 309.425781 C 33.75 308.484375 33.964844 307.554688 34.15625 306.617188 L 35.339844 301.003906 C 35.523438 300.066406 35.75 299.136719 35.960938 298.207031 L 36.597656 295.410156 C 37.417969 291.679688 38.390625 287.984375 39.296875 284.277344 C 41.222656 276.890625 43.253906 269.53125 45.550781 262.257812 C 46.652344 258.601562 47.902344 255 49.078125 251.375 C 49.6875 249.566406 50.335938 247.773438 50.96875 245.972656 L 51.914062 243.277344 L 52.914062 240.597656 C 55.523438 233.4375 58.382812 226.367188 61.378906 219.359375 L 63.648438 214.117188 L 66.015625 208.910156 C 66.789062 207.171875 67.625 205.460938 68.445312 203.738281 C 69.261719 202.019531 70.074219 200.296875 70.933594 198.597656 C 74.257812 191.730469 77.84375 185.007812 81.550781 178.347656 C 83.382812 175.007812 85.308594 171.71875 87.230469 168.429688 L 90.179688 163.53125 L 93.183594 158.667969 C 97.226562 152.203125 101.4375 145.84375 105.8125 139.585938 C 107.988281 136.453125 110.230469 133.363281 112.484375 130.285156 L 114.191406 127.984375 C 114.757812 127.214844 115.328125 126.449219 115.902344 125.695312 L 117.628906 123.414062 C 118.207031 122.65625 118.78125 121.894531 119.375 121.148438 L 121.140625 118.890625 C 121.730469 118.140625 122.316406 117.390625 122.914062 116.644531 L 124.703125 114.40625 L 125.597656 113.285156 L 126.503906 112.179688 C 127.722656 110.707031 128.917969 109.21875 130.160156 107.765625 L 132.003906 105.570312 C 132.613281 104.832031 133.246094 104.117188 133.863281 103.390625 L 135.730469 101.214844 L 137.628906 99.0625 C 138.890625 97.617188 140.171875 96.207031 141.445312 94.78125 C 142.078125 94.066406 142.726562 93.359375 143.375 92.65625 L 145.3125 90.542969 C 146.625 89.148438 147.925781 87.742188 149.25 86.363281 C 154.519531 80.8125 159.949219 75.40625 165.535156 70.148438 C 168.332031 67.527344 171.160156 64.9375 174.046875 62.40625 C 175.480469 61.132812 176.941406 59.886719 178.410156 58.644531 C 179.144531 58.023438 179.882812 57.410156 180.625 56.800781 C 181.367188 56.191406 182.117188 55.585938 182.875 54.996094 Z M 182.875 54.996094 " fill-opacity="1" fill-rule="nonzero"/></g></g></g><g clip-path="url(#1e54cc2a35)"><g clip-path="url(#9ab47bd732)"><g clip-path="url(#6dcc2d5172)"><path fill="#5c6657" d="M 318.214844 189.863281 C 315.617188 189.957031 313.019531 190.15625 310.425781 190.378906 C 307.832031 190.605469 305.242188 190.886719 302.660156 191.199219 C 297.488281 191.824219 292.328125 192.589844 287.1875 193.457031 C 276.910156 195.214844 266.714844 197.398438 256.597656 200.019531 C 254.074219 200.675781 251.550781 201.351562 249.035156 202.046875 C 247.773438 202.382812 246.523438 202.757812 245.269531 203.117188 C 244.011719 203.480469 242.765625 203.855469 241.515625 204.230469 C 236.507812 205.71875 231.542969 207.339844 226.59375 209.023438 L 222.894531 210.3125 C 221.660156 210.75 220.4375 211.207031 219.207031 211.652344 C 217.980469 212.097656 216.757812 212.550781 215.535156 213.019531 C 214.316406 213.488281 213.089844 213.9375 211.871094 214.417969 C 207 216.3125 202.171875 218.328125 197.378906 220.410156 C 178.214844 228.796875 159.730469 238.820312 142.429688 250.59375 L 139.203125 252.820312 C 138.664062 253.191406 138.132812 253.578125 137.601562 253.957031 L 136.011719 255.101562 C 133.878906 256.613281 131.792969 258.191406 129.707031 259.765625 C 125.570312 262.957031 121.476562 266.203125 117.527344 269.621094 L 116.039062 270.890625 L 114.578125 272.199219 C 113.605469 273.070312 112.625 273.925781 111.65625 274.800781 L 108.792969 277.46875 C 108.316406 277.914062 107.835938 278.351562 107.367188 278.804688 L 105.96875 280.171875 C 105.039062 281.082031 104.101562 281.988281 103.179688 282.90625 L 100.453125 285.707031 L 99.097656 287.109375 L 97.773438 288.542969 C 96.890625 289.503906 96.015625 290.464844 95.144531 291.425781 C 103.164062 284.800781 111.265625 278.359375 119.679688 272.363281 L 122.824219 270.109375 L 126.007812 267.90625 L 127.597656 266.804688 L 129.199219 265.722656 C 130.269531 265.003906 131.335938 264.277344 132.410156 263.566406 C 136.71875 260.734375 141.058594 257.960938 145.453125 255.28125 C 163.039062 244.5625 181.375 235.171875 200.21875 226.90625 C 201.398438 226.386719 202.574219 225.863281 203.757812 225.363281 C 204.941406 224.863281 206.121094 224.347656 207.308594 223.851562 L 210.871094 222.371094 L 214.449219 220.921875 C 215.636719 220.429688 216.835938 219.957031 218.035156 219.484375 C 219.230469 219.011719 220.425781 218.535156 221.628906 218.078125 C 222.832031 217.625 224.03125 217.152344 225.234375 216.703125 C 226.441406 216.25 227.644531 215.796875 228.851562 215.339844 C 233.679688 213.546875 238.539062 211.839844 243.414062 210.164062 C 245.859375 209.320312 248.300781 208.527344 250.75 207.722656 C 253.199219 206.914062 255.65625 206.128906 258.121094 205.363281 C 267.964844 202.277344 277.898438 199.4375 287.914062 196.847656 C 297.933594 194.257812 308.015625 191.863281 318.214844 189.863281 Z M 318.214844 189.863281 " fill-opacity="1" fill-rule="nonzero"/></g></g></g><g clip-path="url(#3d719c48ab)"><g clip-path="url(#33f1d2ffc9)"><g clip-path="url(#1f4e93301f)"><path fill="#5c6657" d="M 205.183594 188.582031 C 201.660156 189.050781 198.167969 189.785156 194.707031 190.597656 C 192.96875 190.992188 191.246094 191.453125 189.523438 191.914062 C 187.804688 192.378906 186.09375 192.882812 184.386719 193.398438 C 180.980469 194.449219 177.601562 195.597656 174.246094 196.828125 C 173.414062 197.140625 172.574219 197.445312 171.742188 197.769531 C 170.910156 198.09375 170.082031 198.425781 169.25 198.753906 C 167.59375 199.421875 165.945312 200.105469 164.308594 200.820312 C 157.742188 203.667969 151.351562 206.875 145.144531 210.4375 C 144.367188 210.878906 143.589844 211.320312 142.824219 211.785156 C 142.058594 212.25 141.28125 212.691406 140.523438 213.171875 L 138.242188 214.585938 L 135.988281 216.035156 C 132.988281 217.996094 130.042969 220.035156 127.15625 222.148438 C 115.628906 230.644531 105.082031 240.519531 96.015625 251.589844 C 91.457031 257.101562 87.332031 262.957031 83.535156 269 C 79.804688 275.085938 76.421875 281.375 73.554688 287.886719 C 77.066406 281.703125 80.796875 275.667969 84.863281 269.878906 C 86.914062 267 88.980469 264.132812 91.1875 261.375 L 92.007812 260.335938 C 92.277344 259.988281 92.5625 259.652344 92.839844 259.308594 L 94.511719 257.257812 C 95.078125 256.578125 95.660156 255.90625 96.226562 255.238281 L 97.082031 254.230469 C 97.371094 253.898438 97.664062 253.570312 97.957031 253.238281 C 107.257812 242.632812 117.742188 233.121094 129.078125 224.757812 C 134.75 220.585938 140.621094 216.695312 146.691406 213.089844 C 149.71875 211.285156 152.796875 209.5625 155.902344 207.898438 C 159.011719 206.230469 162.171875 204.652344 165.359375 203.136719 C 171.738281 200.109375 178.25 197.335938 184.894531 194.902344 C 188.210938 193.664062 191.5625 192.53125 194.945312 191.460938 C 196.632812 190.925781 198.332031 190.417969 200.039062 189.933594 C 201.746094 189.453125 203.460938 189.003906 205.183594 188.582031 Z M 205.183594 188.582031 " fill-opacity="1" fill-rule="nonzero"/></g></g></g><g clip-path="url(#29eee4a718)"><g clip-path="url(#246e19e4f5)"><g clip-path="url(#d89af71068)"><path fill="#5c6657" d="M 156.011719 132.894531 C 152.539062 135.582031 149.226562 138.480469 145.972656 141.433594 C 144.339844 142.90625 142.746094 144.425781 141.160156 145.945312 C 139.574219 147.46875 138.011719 149.015625 136.457031 150.570312 C 133.367188 153.703125 130.34375 156.902344 127.386719 160.164062 C 126.644531 160.980469 125.910156 161.800781 125.183594 162.621094 L 123.011719 165.113281 L 120.867188 167.625 L 118.746094 170.15625 C 107.453125 183.757812 97.441406 198.242188 88.714844 213.617188 C 80.027344 228.972656 72.757812 245.15625 67.351562 261.949219 C 61.902344 278.722656 58.375 296.117188 57.121094 313.640625 L 57.636719 310.386719 L 57.894531 308.761719 C 57.980469 308.222656 58.082031 307.683594 58.179688 307.144531 L 58.742188 303.90625 C 58.9375 302.828125 59.160156 301.753906 59.367188 300.679688 C 59.765625 298.519531 60.246094 296.386719 60.703125 294.246094 C 60.929688 293.179688 61.195312 292.113281 61.441406 291.046875 C 61.6875 289.980469 61.929688 288.914062 62.214844 287.859375 C 64.308594 279.363281 66.820312 270.996094 69.746094 262.753906 C 75.578125 246.289062 82.9375 230.398438 91.53125 215.207031 C 93.667969 211.402344 95.90625 207.652344 98.203125 203.941406 C 100.5 200.234375 102.863281 196.558594 105.304688 192.9375 C 107.746094 189.320312 110.253906 185.742188 112.816406 182.203125 C 114.097656 180.433594 115.410156 178.6875 116.71875 176.9375 L 118.703125 174.332031 L 120.707031 171.738281 L 122.742188 169.167969 L 124.796875 166.613281 C 126.179688 164.921875 127.574219 163.238281 128.980469 161.558594 C 131.789062 158.207031 134.664062 154.90625 137.605469 151.664062 C 140.53125 148.40625 143.535156 145.222656 146.597656 142.082031 C 148.125 140.511719 149.671875 138.960938 151.242188 137.429688 C 152.8125 135.894531 154.402344 134.386719 156.011719 132.894531 Z M 156.011719 132.894531 " fill-opacity="1" fill-rule="nonzero"/></g></g></g></g></g></g><g transform="matrix(1, 0, 0, 1, 167, 241)"><g clip-path="url(#058ef04e98)"><g fill="#5c6657" fill-opacity="1"><g transform="translate(0.991629, 56.550389)"><g><path d="M 18 -52 C 19.6875 -52 21.347656 -52 22.984375 -52 C 24.617188 -52 26.28125 -52 27.96875 -52 C 28.3125 -52 28.644531 -52 28.96875 -52 C 29.289062 -52 29.628906 -52 29.984375 -52 C 30.222656 -52 30.492188 -52 30.796875 -52 C 31.097656 -52 31.347656 -51.945312 31.546875 -51.84375 C 31.640625 -51.800781 31.75 -51.78125 31.875 -51.78125 C 32 -51.78125 32.113281 -51.753906 32.21875 -51.703125 C 32.507812 -51.703125 32.789062 -51.703125 33.0625 -51.703125 C 33.332031 -51.703125 33.59375 -51.648438 33.84375 -51.546875 C 34.09375 -51.503906 34.34375 -51.429688 34.59375 -51.328125 C 34.84375 -51.234375 35.085938 -51.132812 35.328125 -51.03125 C 35.378906 -50.976562 35.429688 -50.953125 35.484375 -50.953125 C 35.734375 -50.859375 35.96875 -50.785156 36.1875 -50.734375 C 36.414062 -50.679688 36.628906 -50.609375 36.828125 -50.515625 C 37.078125 -50.316406 37.320312 -50.140625 37.5625 -49.984375 C 37.8125 -49.835938 38.0625 -49.664062 38.3125 -49.46875 C 38.5625 -49.320312 38.804688 -49.148438 39.046875 -48.953125 C 39.296875 -48.753906 39.546875 -48.578125 39.796875 -48.421875 C 40.140625 -48.222656 40.535156 -47.878906 40.984375 -47.390625 C 41.378906 -46.890625 41.785156 -46.40625 42.203125 -45.9375 C 42.628906 -45.46875 43.039062 -44.984375 43.4375 -44.484375 C 43.539062 -44.390625 43.613281 -44.289062 43.65625 -44.1875 C 43.707031 -44.09375 43.757812 -43.992188 43.8125 -43.890625 C 44.207031 -42.992188 44.484375 -42.125 44.640625 -41.28125 C 44.679688 -41.082031 44.710938 -40.867188 44.734375 -40.640625 C 44.765625 -40.421875 44.804688 -40.191406 44.859375 -39.953125 C 44.910156 -39.753906 44.945312 -39.566406 44.96875 -39.390625 C 44.988281 -39.210938 45 -39.023438 45 -38.828125 C 45 -38.628906 45 -38.441406 45 -38.265625 C 45 -38.097656 45 -37.914062 45 -37.71875 C 45 -37.414062 45 -37.113281 45 -36.8125 C 45 -36.519531 44.976562 -36.226562 44.9375 -35.9375 C 44.9375 -35.6875 44.894531 -35.421875 44.8125 -35.140625 C 44.738281 -34.867188 44.679688 -34.613281 44.640625 -34.375 C 44.585938 -34.019531 44.460938 -33.671875 44.265625 -33.328125 C 43.765625 -32.140625 43.242188 -31.046875 42.703125 -30.046875 C 42.347656 -29.453125 41.898438 -28.832031 41.359375 -28.1875 C 40.816406 -27.644531 40.394531 -27.238281 40.09375 -26.96875 C 39.800781 -26.695312 39.476562 -26.4375 39.125 -26.1875 C 38.78125 -25.9375 38.238281 -25.5625 37.5 -25.0625 C 36.800781 -24.625 36.066406 -24.265625 35.296875 -23.984375 C 34.523438 -23.710938 33.742188 -23.453125 32.953125 -23.203125 C 32.859375 -23.160156 32.75 -23.140625 32.625 -23.140625 C 32.5 -23.140625 32.382812 -23.113281 32.28125 -23.0625 C 32.082031 -23.007812 31.894531 -22.984375 31.71875 -22.984375 C 31.550781 -22.984375 31.367188 -22.957031 31.171875 -22.90625 C 30.722656 -22.707031 30.203125 -22.609375 29.609375 -22.609375 C 29.410156 -22.566406 29.195312 -22.53125 28.96875 -22.5 C 28.75 -22.476562 28.515625 -22.441406 28.265625 -22.390625 C 28.066406 -22.335938 27.878906 -22.300781 27.703125 -22.28125 C 27.535156 -22.257812 27.351562 -22.222656 27.15625 -22.171875 C 26.757812 -22.117188 26.347656 -22.078125 25.921875 -22.046875 C 25.503906 -22.023438 25.097656 -21.96875 24.703125 -21.875 C 24.503906 -21.820312 24.289062 -21.78125 24.0625 -21.75 C 23.84375 -21.726562 23.609375 -21.71875 23.359375 -21.71875 C 23.015625 -21.71875 22.640625 -21.71875 22.234375 -21.71875 C 21.835938 -21.71875 21.441406 -21.691406 21.046875 -21.640625 C 20.847656 -21.640625 20.660156 -21.628906 20.484375 -21.609375 C 20.316406 -21.585938 20.132812 -21.550781 19.9375 -21.5 C 19.488281 -21.394531 19.265625 -21.144531 19.265625 -20.75 C 19.265625 -20.550781 19.25 -20.363281 19.21875 -20.1875 C 19.195312 -20.019531 19.1875 -19.835938 19.1875 -19.640625 C 19.1875 -18.847656 19.1875 -18.050781 19.1875 -17.25 C 19.1875 -16.457031 19.1875 -15.664062 19.1875 -14.875 C 19.144531 -14.476562 19.125 -14.066406 19.125 -13.640625 C 19.125 -13.222656 19.070312 -12.816406 18.96875 -12.421875 C 18.914062 -10.242188 18.914062 -8.035156 18.96875 -5.796875 C 19.070312 -5.453125 19.125 -5.09375 19.125 -4.71875 C 19.125 -4.351562 19.144531 -3.972656 19.1875 -3.578125 C 19.289062 -3.273438 19.390625 -3.070312 19.484375 -2.96875 C 19.785156 -2.675781 20.085938 -2.457031 20.390625 -2.3125 C 20.628906 -2.207031 20.875 -2.101562 21.125 -2 C 21.375 -1.90625 21.625 -1.832031 21.875 -1.78125 C 22.21875 -1.738281 22.550781 -1.664062 22.875 -1.5625 C 23.195312 -1.457031 23.53125 -1.359375 23.875 -1.265625 C 23.925781 -1.210938 23.976562 -1.160156 24.03125 -1.109375 C 24.082031 -1.066406 24.109375 -0.992188 24.109375 -0.890625 C 24.253906 -0.742188 24.226562 -0.617188 24.03125 -0.515625 C 23.925781 -0.421875 23.875 -0.375 23.875 -0.375 C 23.382812 -0.125 22.941406 0 22.546875 0 C 22.441406 0 22.328125 0 22.203125 0 C 22.078125 0 21.96875 0 21.875 0 C 19.039062 0.0507812 16.210938 0.078125 13.390625 0.078125 C 10.566406 0.078125 7.738281 0.101562 4.90625 0.15625 C 4.5625 0.15625 4.226562 0.15625 3.90625 0.15625 C 3.582031 0.15625 3.222656 0.15625 2.828125 0.15625 C 2.773438 0.15625 2.648438 0.101562 2.453125 0 C 2.359375 -0.0507812 2.257812 -0.175781 2.15625 -0.375 C 2.15625 -0.570312 2.226562 -0.695312 2.375 -0.75 C 2.476562 -0.84375 2.59375 -0.925781 2.71875 -1 C 2.84375 -1.070312 2.976562 -1.132812 3.125 -1.1875 C 3.519531 -1.289062 3.890625 -1.40625 4.234375 -1.53125 C 4.585938 -1.65625 4.9375 -1.738281 5.28125 -1.78125 C 5.675781 -1.832031 6.125 -1.984375 6.625 -2.234375 C 6.820312 -2.285156 6.992188 -2.367188 7.140625 -2.484375 C 7.285156 -2.609375 7.410156 -2.722656 7.515625 -2.828125 C 7.710938 -3.023438 7.859375 -3.296875 7.953125 -3.640625 C 8.054688 -4.285156 8.144531 -4.914062 8.21875 -5.53125 C 8.289062 -6.15625 8.328125 -6.789062 8.328125 -7.4375 C 8.328125 -7.9375 8.335938 -8.429688 8.359375 -8.921875 C 8.390625 -9.421875 8.40625 -9.921875 8.40625 -10.421875 C 8.40625 -13.742188 8.414062 -17.066406 8.4375 -20.390625 C 8.46875 -23.710938 8.484375 -27.03125 8.484375 -30.34375 C 8.484375 -32.425781 8.492188 -34.519531 8.515625 -36.625 C 8.546875 -38.738281 8.535156 -40.863281 8.484375 -43 C 8.429688 -43.84375 8.414062 -44.707031 8.4375 -45.59375 C 8.46875 -46.488281 8.484375 -47.359375 8.484375 -48.203125 C 8.484375 -48.304688 8.46875 -48.414062 8.4375 -48.53125 C 8.414062 -48.65625 8.40625 -48.769531 8.40625 -48.875 C 8.40625 -48.976562 8.351562 -49.128906 8.25 -49.328125 C 8.050781 -49.566406 7.828125 -49.773438 7.578125 -49.953125 C 7.335938 -50.128906 7.066406 -50.238281 6.765625 -50.28125 C 6.617188 -50.28125 6.457031 -50.289062 6.28125 -50.3125 C 6.113281 -50.34375 5.953125 -50.359375 5.796875 -50.359375 C 5.703125 -50.410156 5.601562 -50.4375 5.5 -50.4375 C 5.40625 -50.4375 5.304688 -50.460938 5.203125 -50.515625 C 5.109375 -50.554688 5 -50.601562 4.875 -50.65625 C 4.75 -50.707031 4.632812 -50.757812 4.53125 -50.8125 C 4.332031 -50.90625 4.285156 -51.101562 4.390625 -51.40625 C 4.535156 -51.65625 4.785156 -51.828125 5.140625 -51.921875 C 5.285156 -51.972656 5.503906 -52 5.796875 -52 C 6.191406 -52 6.578125 -52.007812 6.953125 -52.03125 C 7.328125 -52.0625 7.6875 -52.078125 8.03125 -52.078125 C 9.71875 -52.078125 11.378906 -52.078125 13.015625 -52.078125 C 14.648438 -52.078125 16.3125 -52.078125 18 -52.078125 C 18 -52.078125 18 -52.050781 18 -52 Z M 19.1875 -35.703125 C 19.1875 -33.921875 19.1875 -32.125 19.1875 -30.3125 C 19.1875 -28.5 19.210938 -26.675781 19.265625 -24.84375 C 19.265625 -24.789062 19.265625 -24.726562 19.265625 -24.65625 C 19.265625 -24.582031 19.265625 -24.5 19.265625 -24.40625 C 19.265625 -24.351562 19.265625 -24.3125 19.265625 -24.28125 C 19.265625 -24.257812 19.265625 -24.222656 19.265625 -24.171875 C 19.265625 -24.078125 19.328125 -23.953125 19.453125 -23.796875 C 19.578125 -23.648438 19.710938 -23.601562 19.859375 -23.65625 C 20.109375 -23.707031 20.367188 -23.742188 20.640625 -23.765625 C 20.910156 -23.796875 21.171875 -23.832031 21.421875 -23.875 C 21.671875 -23.875 21.929688 -23.875 22.203125 -23.875 C 22.472656 -23.875 22.734375 -23.875 22.984375 -23.875 C 23.734375 -23.925781 24.441406 -24.0625 25.109375 -24.28125 C 25.773438 -24.507812 26.429688 -24.796875 27.078125 -25.140625 C 27.222656 -25.242188 27.359375 -25.332031 27.484375 -25.40625 C 27.609375 -25.476562 27.722656 -25.539062 27.828125 -25.59375 C 28.472656 -25.9375 29.039062 -26.34375 29.53125 -26.8125 C 30.03125 -27.289062 30.453125 -27.800781 30.796875 -28.34375 C 31.335938 -29.039062 31.816406 -29.769531 32.234375 -30.53125 C 32.660156 -31.300781 33.050781 -32.082031 33.40625 -32.875 C 33.644531 -33.425781 33.863281 -33.984375 34.0625 -34.546875 C 34.269531 -35.117188 34.347656 -35.726562 34.296875 -36.375 C 34.296875 -36.519531 34.34375 -36.742188 34.4375 -37.046875 C 34.59375 -37.984375 34.570312 -38.875 34.375 -39.71875 C 34.320312 -39.820312 34.296875 -39.972656 34.296875 -40.171875 C 34.296875 -40.710938 34.207031 -41.234375 34.03125 -41.734375 C 33.851562 -42.234375 33.664062 -42.726562 33.46875 -43.21875 C 33.320312 -43.519531 33.175781 -43.816406 33.03125 -44.109375 C 32.882812 -44.410156 32.734375 -44.707031 32.578125 -45 C 31.984375 -45.894531 31.316406 -46.71875 30.578125 -47.46875 C 30.421875 -47.5625 30.28125 -47.644531 30.15625 -47.71875 C 30.039062 -47.789062 29.90625 -47.851562 29.75 -47.90625 C 28.8125 -48.300781 27.894531 -48.597656 27 -48.796875 C 26.90625 -48.847656 26.796875 -48.875 26.671875 -48.875 C 26.546875 -48.875 26.429688 -48.898438 26.328125 -48.953125 C 24.691406 -49.046875 23.03125 -49.046875 21.34375 -48.953125 C 21.25 -48.953125 21.140625 -48.9375 21.015625 -48.90625 C 20.890625 -48.882812 20.78125 -48.875 20.6875 -48.875 C 19.9375 -48.820312 19.515625 -48.375 19.421875 -47.53125 C 19.367188 -47.4375 19.34375 -47.289062 19.34375 -47.09375 C 19.289062 -46 19.25 -44.90625 19.21875 -43.8125 C 19.195312 -42.71875 19.1875 -41.601562 19.1875 -40.46875 C 19.1875 -39.675781 19.1875 -38.894531 19.1875 -38.125 C 19.1875 -37.351562 19.1875 -36.546875 19.1875 -35.703125 Z M 19.1875 -35.703125 "/></g></g></g><g fill="#5c6657" fill-opacity="1"><g transform="translate(47.031954, 56.550389)"><g><path d="M 22.171875 0.078125 C 21.972656 -0.078125 21.796875 -0.15625 21.640625 -0.15625 C 20.847656 -0.394531 20.101562 -0.6875 19.40625 -1.03125 C 18.71875 -1.382812 18.023438 -1.734375 17.328125 -2.078125 C 17.035156 -2.273438 16.738281 -2.460938 16.4375 -2.640625 C 16.144531 -2.816406 15.847656 -3.003906 15.546875 -3.203125 C 15.347656 -3.296875 15.171875 -3.414062 15.015625 -3.5625 C 14.867188 -3.71875 14.675781 -3.84375 14.4375 -3.9375 C 13.9375 -4.238281 13.453125 -4.585938 12.984375 -4.984375 C 12.515625 -5.378906 12.054688 -5.773438 11.609375 -6.171875 C 11.304688 -6.421875 11.003906 -6.691406 10.703125 -6.984375 C 10.410156 -7.285156 10.09375 -7.585938 9.75 -7.890625 C 9.5 -8.128906 9.257812 -8.398438 9.03125 -8.703125 C 8.8125 -9.003906 8.578125 -9.300781 8.328125 -9.59375 C 8.128906 -9.84375 7.929688 -10.113281 7.734375 -10.40625 C 7.535156 -10.707031 7.3125 -10.957031 7.0625 -11.15625 C 6.664062 -11.65625 6.296875 -12.148438 5.953125 -12.640625 C 5.609375 -13.140625 5.3125 -13.660156 5.0625 -14.203125 C 4.863281 -14.703125 4.664062 -15.1875 4.46875 -15.65625 C 4.269531 -16.125 4.046875 -16.609375 3.796875 -17.109375 C 3.742188 -17.253906 3.703125 -17.398438 3.671875 -17.546875 C 3.648438 -17.703125 3.59375 -17.851562 3.5 -18 C 3.34375 -18.394531 3.210938 -18.789062 3.109375 -19.1875 C 3.015625 -19.582031 2.921875 -19.984375 2.828125 -20.390625 C 2.722656 -20.628906 2.644531 -20.910156 2.59375 -21.234375 C 2.550781 -21.554688 2.476562 -21.84375 2.375 -22.09375 C 2.332031 -22.238281 2.296875 -22.382812 2.265625 -22.53125 C 2.242188 -22.6875 2.234375 -22.835938 2.234375 -22.984375 C 2.234375 -23.679688 2.234375 -24.335938 2.234375 -24.953125 C 2.234375 -25.578125 2.234375 -26.210938 2.234375 -26.859375 C 2.234375 -27.398438 2.28125 -27.957031 2.375 -28.53125 C 2.476562 -29.101562 2.578125 -29.660156 2.671875 -30.203125 C 2.773438 -30.742188 2.890625 -31.273438 3.015625 -31.796875 C 3.140625 -32.316406 3.300781 -32.828125 3.5 -33.328125 C 3.644531 -33.773438 3.789062 -34.234375 3.9375 -34.703125 C 4.09375 -35.171875 4.21875 -35.628906 4.3125 -36.078125 C 4.507812 -36.671875 4.804688 -37.289062 5.203125 -37.9375 C 5.304688 -38.132812 5.429688 -38.316406 5.578125 -38.484375 C 5.722656 -38.660156 5.847656 -38.851562 5.953125 -39.0625 C 6.347656 -39.601562 6.71875 -40.132812 7.0625 -40.65625 C 7.414062 -41.175781 7.765625 -41.707031 8.109375 -42.25 C 8.359375 -42.601562 8.59375 -42.914062 8.8125 -43.1875 C 9.039062 -43.457031 9.273438 -43.742188 9.515625 -44.046875 C 10.710938 -45.378906 12.078125 -46.539062 13.609375 -47.53125 C 14.304688 -47.976562 15.023438 -48.398438 15.765625 -48.796875 C 16.515625 -49.191406 17.285156 -49.539062 18.078125 -49.84375 C 18.523438 -49.988281 18.96875 -50.144531 19.40625 -50.3125 C 19.851562 -50.488281 20.328125 -50.679688 20.828125 -50.890625 C 20.972656 -50.929688 21.109375 -50.976562 21.234375 -51.03125 C 21.359375 -51.082031 21.492188 -51.109375 21.640625 -51.109375 C 21.742188 -51.160156 21.859375 -51.195312 21.984375 -51.21875 C 22.109375 -51.238281 22.21875 -51.273438 22.3125 -51.328125 C 23.007812 -51.578125 23.71875 -51.765625 24.4375 -51.890625 C 25.15625 -52.015625 25.835938 -52.175781 26.484375 -52.375 C 26.628906 -52.425781 26.773438 -52.453125 26.921875 -52.453125 C 27.078125 -52.453125 27.226562 -52.453125 27.375 -52.453125 C 27.875 -52.453125 28.34375 -52.453125 28.78125 -52.453125 C 29.226562 -52.453125 29.675781 -52.453125 30.125 -52.453125 C 30.320312 -52.453125 30.507812 -52.453125 30.6875 -52.453125 C 30.863281 -52.453125 31.050781 -52.425781 31.25 -52.375 C 31.988281 -52.175781 32.804688 -52.078125 33.703125 -52.078125 C 33.953125 -52.078125 34.1875 -52.0625 34.40625 -52.03125 C 34.625 -52.007812 34.859375 -52 35.109375 -52 C 35.554688 -52 36.003906 -51.925781 36.453125 -51.78125 C 36.648438 -51.675781 36.847656 -51.625 37.046875 -51.625 C 37.585938 -51.570312 38.082031 -51.472656 38.53125 -51.328125 C 38.976562 -51.179688 39.425781 -51.035156 39.875 -50.890625 C 40.125 -50.835938 40.347656 -50.75 40.546875 -50.625 C 40.742188 -50.5 40.941406 -50.382812 41.140625 -50.28125 C 41.390625 -50.238281 41.613281 -50.175781 41.8125 -50.09375 C 42.007812 -50.019531 42.207031 -49.9375 42.40625 -49.84375 C 43.25 -49.539062 43.992188 -49.164062 44.640625 -48.71875 C 44.929688 -48.519531 45.128906 -48.222656 45.234375 -47.828125 C 45.234375 -47.679688 45.242188 -47.53125 45.265625 -47.375 C 45.285156 -47.226562 45.296875 -47.082031 45.296875 -46.9375 C 45.347656 -46.445312 45.382812 -45.953125 45.40625 -45.453125 C 45.4375 -44.953125 45.5 -44.457031 45.59375 -43.96875 C 45.644531 -43.769531 45.671875 -43.582031 45.671875 -43.40625 C 45.671875 -43.226562 45.671875 -43.039062 45.671875 -42.84375 C 45.722656 -42.601562 45.757812 -42.34375 45.78125 -42.0625 C 45.8125 -41.789062 45.851562 -41.53125 45.90625 -41.28125 C 46.144531 -40.394531 46.21875 -39.503906 46.125 -38.609375 C 46.125 -38.503906 46.070312 -38.351562 45.96875 -38.15625 C 45.820312 -37.957031 45.613281 -37.867188 45.34375 -37.890625 C 45.070312 -37.921875 44.882812 -38.035156 44.78125 -38.234375 C 44.726562 -38.335938 44.691406 -38.410156 44.671875 -38.453125 C 44.648438 -38.503906 44.613281 -38.554688 44.5625 -38.609375 C 44.507812 -38.753906 44.445312 -38.890625 44.375 -39.015625 C 44.300781 -39.140625 44.210938 -39.273438 44.109375 -39.421875 C 43.617188 -40.460938 43.078125 -41.359375 42.484375 -42.109375 C 42.273438 -42.304688 42.097656 -42.515625 41.953125 -42.734375 C 41.804688 -42.960938 41.660156 -43.175781 41.515625 -43.375 C 41.359375 -43.613281 41.191406 -43.820312 41.015625 -44 C 40.847656 -44.175781 40.664062 -44.363281 40.46875 -44.5625 C 40.125 -44.90625 39.773438 -45.238281 39.421875 -45.5625 C 39.078125 -45.882812 38.707031 -46.21875 38.3125 -46.5625 C 38.207031 -46.71875 38.082031 -46.867188 37.9375 -47.015625 C 37.789062 -47.160156 37.664062 -47.285156 37.5625 -47.390625 C 36.675781 -48.128906 35.710938 -48.722656 34.671875 -49.171875 C 34.472656 -49.273438 34.257812 -49.363281 34.03125 -49.4375 C 33.8125 -49.507812 33.601562 -49.570312 33.40625 -49.625 C 33.300781 -49.664062 33.1875 -49.6875 33.0625 -49.6875 C 32.9375 -49.6875 32.828125 -49.710938 32.734375 -49.765625 C 32.390625 -49.765625 32.054688 -49.800781 31.734375 -49.875 C 31.410156 -49.945312 31.070312 -50.007812 30.71875 -50.0625 C 30.570312 -50.164062 30.421875 -50.21875 30.265625 -50.21875 C 30.117188 -50.21875 29.972656 -50.21875 29.828125 -50.21875 C 29.285156 -50.257812 28.71875 -50.28125 28.125 -50.28125 C 27.53125 -50.28125 26.957031 -50.28125 26.40625 -50.28125 C 26.113281 -50.238281 25.816406 -50.191406 25.515625 -50.140625 C 25.210938 -50.085938 24.914062 -50.015625 24.625 -49.921875 C 24.28125 -49.816406 23.929688 -49.691406 23.578125 -49.546875 C 23.234375 -49.398438 22.910156 -49.203125 22.609375 -48.953125 C 22.367188 -48.796875 22.109375 -48.644531 21.828125 -48.5 C 21.554688 -48.351562 21.296875 -48.207031 21.046875 -48.0625 C 20.753906 -47.90625 20.507812 -47.726562 20.3125 -47.53125 C 20.113281 -47.332031 19.914062 -47.109375 19.71875 -46.859375 C 19.519531 -46.617188 19.320312 -46.347656 19.125 -46.046875 C 18.925781 -45.742188 18.722656 -45.445312 18.515625 -45.15625 C 17.773438 -44.0625 17.332031 -42.796875 17.1875 -41.359375 C 17.132812 -41.066406 17.09375 -40.769531 17.0625 -40.46875 C 17.039062 -40.164062 16.984375 -39.867188 16.890625 -39.578125 C 16.835938 -39.378906 16.796875 -39.191406 16.765625 -39.015625 C 16.742188 -38.835938 16.734375 -38.648438 16.734375 -38.453125 C 16.679688 -38.253906 16.644531 -38.046875 16.625 -37.828125 C 16.601562 -37.609375 16.566406 -37.375 16.515625 -37.125 C 16.367188 -36.675781 16.296875 -36.226562 16.296875 -35.78125 C 16.242188 -35.632812 16.21875 -35.484375 16.21875 -35.328125 C 16.21875 -35.179688 16.191406 -35.035156 16.140625 -34.890625 C 16.046875 -34.492188 15.972656 -34.082031 15.921875 -33.65625 C 15.867188 -33.238281 15.816406 -32.832031 15.765625 -32.4375 C 15.765625 -32.382812 15.765625 -32.34375 15.765625 -32.3125 C 15.765625 -32.289062 15.765625 -32.257812 15.765625 -32.21875 C 15.722656 -31.863281 15.675781 -31.523438 15.625 -31.203125 C 15.570312 -30.878906 15.519531 -30.546875 15.46875 -30.203125 C 15.425781 -29.859375 15.390625 -29.523438 15.359375 -29.203125 C 15.335938 -28.878906 15.300781 -28.539062 15.25 -28.1875 C 15.25 -28.144531 15.25 -28.109375 15.25 -28.078125 C 15.25 -28.054688 15.25 -28.019531 15.25 -27.96875 C 15.050781 -27.226562 14.9375 -26.472656 14.90625 -25.703125 C 14.882812 -24.929688 14.847656 -24.175781 14.796875 -23.4375 C 14.796875 -23.082031 14.796875 -22.742188 14.796875 -22.421875 C 14.796875 -22.097656 14.796875 -21.765625 14.796875 -21.421875 C 14.753906 -20.628906 14.753906 -19.835938 14.796875 -19.046875 C 14.847656 -18.253906 14.898438 -17.457031 14.953125 -16.65625 C 14.953125 -16.507812 15 -16.289062 15.09375 -16 C 15.195312 -15.601562 15.285156 -15.203125 15.359375 -14.796875 C 15.429688 -14.398438 15.566406 -14.003906 15.765625 -13.609375 C 15.867188 -13.265625 15.96875 -12.929688 16.0625 -12.609375 C 16.164062 -12.285156 16.242188 -11.953125 16.296875 -11.609375 C 16.390625 -11.253906 16.484375 -10.925781 16.578125 -10.625 C 16.679688 -10.332031 16.785156 -10.015625 16.890625 -9.671875 C 17.285156 -8.484375 17.828125 -7.414062 18.515625 -6.46875 C 18.617188 -6.269531 18.742188 -6.082031 18.890625 -5.90625 C 19.046875 -5.738281 19.195312 -5.554688 19.34375 -5.359375 C 19.6875 -5.160156 20.019531 -4.921875 20.34375 -4.640625 C 20.664062 -4.367188 20.953125 -4.085938 21.203125 -3.796875 C 21.492188 -3.492188 21.8125 -3.253906 22.15625 -3.078125 C 22.507812 -2.910156 22.859375 -2.773438 23.203125 -2.671875 C 23.453125 -2.578125 23.703125 -2.503906 23.953125 -2.453125 C 24.203125 -2.398438 24.453125 -2.351562 24.703125 -2.3125 C 24.847656 -2.257812 24.992188 -2.21875 25.140625 -2.1875 C 25.296875 -2.164062 25.445312 -2.15625 25.59375 -2.15625 C 25.988281 -2.101562 26.410156 -2.066406 26.859375 -2.046875 C 27.304688 -2.023438 27.703125 -1.960938 28.046875 -1.859375 C 28.835938 -1.660156 29.679688 -1.632812 30.578125 -1.78125 C 31.421875 -1.882812 32.238281 -2.035156 33.03125 -2.234375 C 33.28125 -2.285156 33.523438 -2.359375 33.765625 -2.453125 C 34.015625 -2.554688 34.265625 -2.628906 34.515625 -2.671875 C 34.910156 -2.867188 35.304688 -3.09375 35.703125 -3.34375 C 36.097656 -3.59375 36.472656 -3.84375 36.828125 -4.09375 C 36.867188 -4.144531 36.890625 -4.179688 36.890625 -4.203125 C 36.890625 -4.222656 36.914062 -4.257812 36.96875 -4.3125 C 37.320312 -4.8125 37.519531 -5.285156 37.5625 -5.734375 C 37.5625 -5.878906 37.5625 -6.023438 37.5625 -6.171875 C 37.5625 -6.316406 37.5625 -6.46875 37.5625 -6.625 C 37.5625 -7.414062 37.5625 -8.179688 37.5625 -8.921875 C 37.5625 -9.671875 37.5625 -10.414062 37.5625 -11.15625 C 37.5625 -11.75 37.550781 -12.144531 37.53125 -12.34375 C 37.507812 -12.539062 37.375 -12.960938 37.125 -13.609375 C 37.125 -13.710938 37.070312 -13.863281 36.96875 -14.0625 C 36.875 -14.351562 36.726562 -14.632812 36.53125 -14.90625 C 36.332031 -15.1875 36.082031 -15.425781 35.78125 -15.625 C 35.28125 -15.96875 34.785156 -16.164062 34.296875 -16.21875 C 33.992188 -16.21875 33.691406 -16.226562 33.390625 -16.25 C 33.097656 -16.28125 32.804688 -16.296875 32.515625 -16.296875 C 32.015625 -16.296875 31.550781 -16.332031 31.125 -16.40625 C 30.707031 -16.476562 30.273438 -16.5625 29.828125 -16.65625 C 29.335938 -16.8125 29.066406 -17.132812 29.015625 -17.625 C 28.910156 -18.125 29.082031 -18.421875 29.53125 -18.515625 C 30.125 -18.617188 30.71875 -18.695312 31.3125 -18.75 C 31.914062 -18.800781 32.515625 -18.828125 33.109375 -18.828125 C 36.273438 -18.828125 39.445312 -18.828125 42.625 -18.828125 C 45.800781 -18.828125 48.972656 -18.828125 52.140625 -18.828125 C 52.296875 -18.828125 52.445312 -18.828125 52.59375 -18.828125 C 52.738281 -18.828125 52.890625 -18.828125 53.046875 -18.828125 C 53.679688 -18.828125 54.203125 -18.550781 54.609375 -18 C 54.804688 -17.851562 54.851562 -17.65625 54.75 -17.40625 C 54.695312 -17.113281 54.5 -16.890625 54.15625 -16.734375 C 54.101562 -16.734375 54.0625 -16.71875 54.03125 -16.6875 C 54.007812 -16.664062 53.976562 -16.65625 53.9375 -16.65625 C 53.6875 -16.613281 53.425781 -16.566406 53.15625 -16.515625 C 52.882812 -16.460938 52.625 -16.410156 52.375 -16.359375 C 51.976562 -16.316406 51.59375 -16.21875 51.21875 -16.0625 C 50.84375 -15.914062 50.457031 -15.769531 50.0625 -15.625 C 49.414062 -15.425781 49.046875 -14.976562 48.953125 -14.28125 C 48.898438 -14.132812 48.875 -13.910156 48.875 -13.609375 C 48.820312 -13.410156 48.804688 -13.210938 48.828125 -13.015625 C 48.859375 -12.816406 48.847656 -12.617188 48.796875 -12.421875 C 48.703125 -11.773438 48.640625 -11.140625 48.609375 -10.515625 C 48.585938 -9.898438 48.578125 -9.269531 48.578125 -8.625 C 48.578125 -7.488281 48.578125 -6.347656 48.578125 -5.203125 C 48.578125 -4.066406 48.578125 -2.925781 48.578125 -1.78125 C 48.578125 -1.632812 48.578125 -1.484375 48.578125 -1.328125 C 48.578125 -1.179688 48.578125 -1.035156 48.578125 -0.890625 C 48.523438 -0.691406 48.410156 -0.492188 48.234375 -0.296875 C 48.066406 -0.0976562 47.882812 0 47.6875 0 C 47.632812 0 47.59375 0 47.5625 0 C 47.539062 0 47.507812 0 47.46875 0 C 45.925781 0 44.398438 0 42.890625 0 C 41.378906 0 39.878906 0 38.390625 0 C 37.941406 0 37.664062 -0.195312 37.5625 -0.59375 C 37.5625 -0.695312 37.515625 -0.847656 37.421875 -1.046875 C 37.222656 -1.140625 37.070312 -1.1875 36.96875 -1.1875 C 36.914062 -1.1875 36.851562 -1.1875 36.78125 -1.1875 C 36.707031 -1.1875 36.625 -1.1875 36.53125 -1.1875 C 36.332031 -1.132812 36.132812 -1.054688 35.9375 -0.953125 C 35.738281 -0.859375 35.515625 -0.789062 35.265625 -0.75 C 34.816406 -0.550781 34.34375 -0.410156 33.84375 -0.328125 C 33.351562 -0.253906 32.882812 -0.171875 32.4375 -0.078125 C 32.1875 -0.0234375 31.925781 0.0078125 31.65625 0.03125 C 31.382812 0.0625 31.125 0.101562 30.875 0.15625 C 30.570312 0.195312 30.285156 0.21875 30.015625 0.21875 C 29.742188 0.21875 29.484375 0.269531 29.234375 0.375 C 28.984375 0.425781 28.722656 0.460938 28.453125 0.484375 C 28.179688 0.503906 27.921875 0.515625 27.671875 0.515625 C 27.023438 0.515625 26.390625 0.503906 25.765625 0.484375 C 25.148438 0.460938 24.519531 0.375 23.875 0.21875 C 23.625 0.175781 23.363281 0.140625 23.09375 0.109375 C 22.820312 0.0859375 22.515625 0.078125 22.171875 0.078125 Z M 22.171875 0.078125 "/></g></g></g><g fill="#5c6657" fill-opacity="1"><g transform="translate(103.559657, 56.550389)"><g><path d="M 18.15625 -0.375 C 17.800781 -0.570312 17.453125 -0.742188 17.109375 -0.890625 C 16.765625 -1.035156 16.414062 -1.1875 16.0625 -1.34375 C 14.78125 -1.9375 13.59375 -2.664062 12.5 -3.53125 C 11.40625 -4.394531 10.390625 -5.375 9.453125 -6.46875 C 9.398438 -6.570312 9.320312 -6.6875 9.21875 -6.8125 C 9.125 -6.9375 9.023438 -7.070312 8.921875 -7.21875 C 8.679688 -7.613281 8.421875 -8.019531 8.140625 -8.4375 C 7.867188 -8.863281 7.5625 -9.25 7.21875 -9.59375 C 6.96875 -9.9375 6.691406 -10.382812 6.390625 -10.9375 C 6.148438 -11.382812 5.890625 -11.84375 5.609375 -12.3125 C 5.335938 -12.78125 5.078125 -13.238281 4.828125 -13.6875 C 4.535156 -14.132812 4.316406 -14.601562 4.171875 -15.09375 C 3.972656 -15.59375 3.769531 -16.050781 3.5625 -16.46875 C 3.363281 -16.894531 3.21875 -17.359375 3.125 -17.859375 C 3.070312 -18.148438 2.992188 -18.441406 2.890625 -18.734375 C 2.796875 -19.035156 2.703125 -19.335938 2.609375 -19.640625 C 2.554688 -20.140625 2.492188 -20.625 2.421875 -21.09375 C 2.347656 -21.5625 2.3125 -22.046875 2.3125 -22.546875 C 2.257812 -23.234375 2.21875 -23.9375 2.1875 -24.65625 C 2.164062 -25.375 2.179688 -26.109375 2.234375 -26.859375 C 2.234375 -27.203125 2.242188 -27.535156 2.265625 -27.859375 C 2.296875 -28.179688 2.332031 -28.515625 2.375 -28.859375 C 2.425781 -29.109375 2.460938 -29.34375 2.484375 -29.5625 C 2.515625 -29.789062 2.554688 -30.003906 2.609375 -30.203125 C 2.609375 -30.703125 2.65625 -31.1875 2.75 -31.65625 C 2.851562 -32.125 2.953125 -32.609375 3.046875 -33.109375 C 3.148438 -33.453125 3.25 -33.769531 3.34375 -34.0625 C 3.445312 -34.363281 3.523438 -34.6875 3.578125 -35.03125 C 3.617188 -35.1875 3.664062 -35.335938 3.71875 -35.484375 C 3.769531 -35.628906 3.820312 -35.78125 3.875 -35.9375 C 4.019531 -36.28125 4.164062 -36.625 4.3125 -36.96875 C 4.457031 -37.320312 4.628906 -37.671875 4.828125 -38.015625 C 5.078125 -38.503906 5.335938 -39 5.609375 -39.5 C 5.890625 -40 6.203125 -40.472656 6.546875 -40.921875 C 6.847656 -41.210938 7.109375 -41.53125 7.328125 -41.875 C 7.546875 -42.226562 7.804688 -42.550781 8.109375 -42.84375 C 8.554688 -43.289062 8.988281 -43.722656 9.40625 -44.140625 C 9.832031 -44.566406 10.269531 -44.976562 10.71875 -45.375 C 10.8125 -45.570312 11.03125 -45.769531 11.375 -45.96875 C 11.78125 -46.21875 12.191406 -46.488281 12.609375 -46.78125 C 13.023438 -47.082031 13.457031 -47.332031 13.90625 -47.53125 C 14.550781 -47.882812 15.171875 -48.234375 15.765625 -48.578125 C 16.359375 -48.921875 16.976562 -49.269531 17.625 -49.625 C 17.875 -49.769531 18.144531 -49.90625 18.4375 -50.03125 C 18.738281 -50.15625 19.015625 -50.289062 19.265625 -50.4375 C 19.410156 -50.488281 19.554688 -50.535156 19.703125 -50.578125 C 19.859375 -50.628906 20.007812 -50.65625 20.15625 -50.65625 C 20.457031 -50.707031 20.753906 -50.769531 21.046875 -50.84375 C 21.347656 -50.914062 21.644531 -50.976562 21.9375 -51.03125 C 22.488281 -51.082031 23.0625 -51.234375 23.65625 -51.484375 C 24 -51.578125 24.332031 -51.632812 24.65625 -51.65625 C 24.976562 -51.6875 25.316406 -51.726562 25.671875 -51.78125 C 26.265625 -51.925781 26.859375 -52 27.453125 -52 C 28.046875 -52 28.664062 -51.972656 29.3125 -51.921875 C 29.363281 -51.921875 29.398438 -51.921875 29.421875 -51.921875 C 29.441406 -51.921875 29.476562 -51.921875 29.53125 -51.921875 C 29.925781 -51.773438 30.3125 -51.703125 30.6875 -51.703125 C 31.0625 -51.703125 31.421875 -51.703125 31.765625 -51.703125 C 32.304688 -51.648438 32.835938 -51.625 33.359375 -51.625 C 33.878906 -51.625 34.414062 -51.625 34.96875 -51.625 C 35.257812 -51.625 35.550781 -51.625 35.84375 -51.625 C 36.144531 -51.625 36.445312 -51.597656 36.75 -51.546875 C 37.34375 -51.546875 37.9375 -51.472656 38.53125 -51.328125 C 38.726562 -51.273438 38.914062 -51.238281 39.09375 -51.21875 C 39.269531 -51.195312 39.457031 -51.160156 39.65625 -51.109375 C 40.195312 -50.960938 40.726562 -50.785156 41.25 -50.578125 C 41.769531 -50.378906 42.253906 -50.082031 42.703125 -49.6875 C 43.046875 -49.488281 43.34375 -49.164062 43.59375 -48.71875 C 43.738281 -48.375 43.8125 -48.003906 43.8125 -47.609375 C 43.863281 -47.359375 43.890625 -47.097656 43.890625 -46.828125 C 43.890625 -46.554688 43.890625 -46.296875 43.890625 -46.046875 C 43.941406 -45.597656 43.976562 -45.160156 44 -44.734375 C 44.03125 -44.316406 44.09375 -43.910156 44.1875 -43.515625 C 44.289062 -43.117188 44.34375 -42.75 44.34375 -42.40625 C 44.382812 -42.207031 44.414062 -41.992188 44.4375 -41.765625 C 44.46875 -41.546875 44.507812 -41.3125 44.5625 -41.0625 C 44.65625 -40.5625 44.726562 -40.050781 44.78125 -39.53125 C 44.832031 -39.007812 44.859375 -38.476562 44.859375 -37.9375 C 44.859375 -37.59375 44.707031 -37.347656 44.40625 -37.203125 C 44.3125 -37.148438 44.175781 -37.144531 44 -37.1875 C 43.820312 -37.238281 43.6875 -37.316406 43.59375 -37.421875 C 43.59375 -37.515625 43.566406 -37.585938 43.515625 -37.640625 C 43.460938 -37.691406 43.4375 -37.742188 43.4375 -37.796875 C 43.394531 -38.035156 43.320312 -38.289062 43.21875 -38.5625 C 43.125 -38.84375 43.023438 -39.082031 42.921875 -39.28125 C 42.671875 -40.269531 42.320312 -41.1875 41.875 -42.03125 C 41.632812 -42.53125 41.375 -43 41.09375 -43.4375 C 40.820312 -43.882812 40.5625 -44.332031 40.3125 -44.78125 C 39.820312 -45.53125 39.300781 -46.101562 38.75 -46.5 C 38.40625 -46.738281 38.046875 -46.992188 37.671875 -47.265625 C 37.304688 -47.546875 36.925781 -47.8125 36.53125 -48.0625 C 36.132812 -48.351562 35.585938 -48.570312 34.890625 -48.71875 C 34.585938 -48.820312 34.300781 -48.9375 34.03125 -49.0625 C 33.757812 -49.1875 33.472656 -49.273438 33.171875 -49.328125 C 32.484375 -49.523438 32.023438 -49.644531 31.796875 -49.6875 C 31.578125 -49.738281 31.144531 -49.789062 30.5 -49.84375 C 30 -49.9375 29.515625 -49.972656 29.046875 -49.953125 C 28.578125 -49.929688 28.09375 -49.921875 27.59375 -49.921875 C 26.550781 -49.816406 25.390625 -49.492188 24.109375 -48.953125 C 23.503906 -48.703125 22.941406 -48.390625 22.421875 -48.015625 C 21.898438 -47.648438 21.394531 -47.265625 20.90625 -46.859375 C 20.707031 -46.765625 20.546875 -46.65625 20.421875 -46.53125 C 20.296875 -46.40625 20.160156 -46.296875 20.015625 -46.203125 C 19.460938 -45.847656 18.972656 -45.4375 18.546875 -44.96875 C 18.128906 -44.5 17.722656 -43.988281 17.328125 -43.4375 C 17.128906 -43.144531 16.914062 -42.847656 16.6875 -42.546875 C 16.46875 -42.253906 16.257812 -41.984375 16.0625 -41.734375 C 15.625 -40.941406 15.253906 -40.160156 14.953125 -39.390625 C 14.648438 -38.617188 14.351562 -37.835938 14.0625 -37.046875 C 13.914062 -36.597656 13.78125 -36.160156 13.65625 -35.734375 C 13.53125 -35.316406 13.46875 -34.863281 13.46875 -34.375 C 13.414062 -34.320312 13.390625 -34.242188 13.390625 -34.140625 C 13.191406 -33.546875 13.078125 -32.953125 13.046875 -32.359375 C 13.023438 -31.765625 12.988281 -31.171875 12.9375 -30.578125 C 12.9375 -30.078125 12.925781 -29.550781 12.90625 -29 C 12.882812 -28.457031 12.820312 -27.914062 12.71875 -27.375 C 12.664062 -27.03125 12.628906 -26.671875 12.609375 -26.296875 C 12.585938 -25.921875 12.578125 -25.535156 12.578125 -25.140625 C 12.578125 -24.492188 12.578125 -23.859375 12.578125 -23.234375 C 12.578125 -22.617188 12.578125 -21.96875 12.578125 -21.28125 C 12.578125 -20.78125 12.613281 -20.296875 12.6875 -19.828125 C 12.757812 -19.359375 12.84375 -18.875 12.9375 -18.375 C 13.039062 -17.976562 13.140625 -17.582031 13.234375 -17.1875 C 13.335938 -16.789062 13.414062 -16.394531 13.46875 -16 C 13.519531 -15.550781 13.601562 -15.128906 13.71875 -14.734375 C 13.84375 -14.335938 13.929688 -13.941406 13.984375 -13.546875 C 13.984375 -13.242188 14.03125 -12.96875 14.125 -12.71875 C 14.226562 -12.46875 14.332031 -12.222656 14.4375 -11.984375 C 14.582031 -11.628906 14.738281 -11.289062 14.90625 -10.96875 C 15.082031 -10.644531 15.269531 -10.3125 15.46875 -9.96875 C 15.820312 -9.46875 16.160156 -8.929688 16.484375 -8.359375 C 16.804688 -7.796875 17.085938 -7.21875 17.328125 -6.625 C 17.679688 -5.976562 18.203125 -5.332031 18.890625 -4.6875 C 19.085938 -4.488281 19.265625 -4.363281 19.421875 -4.3125 C 20.660156 -3.46875 22.070312 -2.773438 23.65625 -2.234375 C 23.800781 -2.179688 24.023438 -2.15625 24.328125 -2.15625 C 24.867188 -2.101562 25.410156 -2.050781 25.953125 -2 C 26.503906 -1.957031 27.03125 -1.910156 27.53125 -1.859375 C 28.164062 -1.804688 28.804688 -1.769531 29.453125 -1.75 C 30.097656 -1.726562 30.742188 -1.738281 31.390625 -1.78125 C 31.492188 -1.78125 31.582031 -1.78125 31.65625 -1.78125 C 31.726562 -1.78125 31.789062 -1.78125 31.84375 -1.78125 C 32.238281 -1.882812 32.609375 -1.972656 32.953125 -2.046875 C 33.296875 -2.117188 33.644531 -2.179688 34 -2.234375 C 34.25 -2.328125 34.507812 -2.410156 34.78125 -2.484375 C 35.050781 -2.566406 35.3125 -2.65625 35.5625 -2.75 C 35.957031 -2.894531 36.328125 -3.078125 36.671875 -3.296875 C 37.023438 -3.523438 37.375 -3.738281 37.71875 -3.9375 C 38.113281 -4.238281 38.472656 -4.535156 38.796875 -4.828125 C 39.117188 -5.128906 39.425781 -5.453125 39.71875 -5.796875 C 40.113281 -6.296875 40.460938 -6.796875 40.765625 -7.296875 C 41.015625 -7.785156 41.238281 -8.300781 41.4375 -8.84375 C 41.632812 -9.394531 41.832031 -9.921875 42.03125 -10.421875 C 42.125 -10.710938 42.222656 -11.003906 42.328125 -11.296875 C 42.429688 -11.597656 42.503906 -11.875 42.546875 -12.125 C 42.703125 -12.519531 42.898438 -12.941406 43.140625 -13.390625 C 43.296875 -13.785156 43.519531 -14.082031 43.8125 -14.28125 C 43.914062 -14.332031 44.03125 -14.378906 44.15625 -14.421875 C 44.28125 -14.472656 44.390625 -14.453125 44.484375 -14.359375 C 44.734375 -14.253906 44.859375 -14.082031 44.859375 -13.84375 C 44.859375 -13.644531 44.859375 -13.457031 44.859375 -13.28125 C 44.859375 -13.101562 44.804688 -12.914062 44.703125 -12.71875 C 44.503906 -12.175781 44.40625 -11.507812 44.40625 -10.71875 C 44.40625 -9.820312 44.40625 -8.925781 44.40625 -8.03125 C 44.40625 -7.132812 44.40625 -6.21875 44.40625 -5.28125 C 44.40625 -5.132812 44.40625 -4.984375 44.40625 -4.828125 C 44.40625 -4.679688 44.40625 -4.535156 44.40625 -4.390625 C 44.3125 -4.085938 44.191406 -3.890625 44.046875 -3.796875 C 43.992188 -3.742188 43.941406 -3.703125 43.890625 -3.671875 C 43.835938 -3.648438 43.765625 -3.59375 43.671875 -3.5 C 42.722656 -2.90625 41.753906 -2.359375 40.765625 -1.859375 C 39.773438 -1.359375 38.707031 -0.9375 37.5625 -0.59375 C 37.46875 -0.539062 37.34375 -0.488281 37.1875 -0.4375 C 37.039062 -0.394531 36.894531 -0.375 36.75 -0.375 C 36.15625 -0.320312 35.5625 -0.21875 34.96875 -0.0625 C 34.375 0.0820312 33.773438 0.175781 33.171875 0.21875 C 32.828125 0.269531 32.46875 0.332031 32.09375 0.40625 C 31.726562 0.476562 31.347656 0.539062 30.953125 0.59375 C 29.554688 0.695312 28.1875 0.734375 26.84375 0.703125 C 25.507812 0.679688 24.148438 0.546875 22.765625 0.296875 C 22.515625 0.242188 22.253906 0.207031 21.984375 0.1875 C 21.710938 0.164062 21.453125 0.15625 21.203125 0.15625 C 20.804688 0.101562 20.394531 0.0507812 19.96875 0 C 19.550781 -0.0507812 19.144531 -0.125 18.75 -0.21875 C 18.445312 -0.320312 18.25 -0.375 18.15625 -0.375 Z M 18.15625 -0.375 "/></g></g></g></g></g></svg>